<?xml version="1.0" standalone="no"?>
<!DOCTYPE svg PUBLIC "-//W3C//DTD SVG 20010904//EN"
 "http://www.w3.org/TR/2001/REC-SVG-20010904/DTD/svg10.dtd">
<svg version="1.0" xmlns="http://www.w3.org/2000/svg"
 width="1280.000000pt" height="720.000000pt" viewBox="0 0 1280.000000 720.000000"
 preserveAspectRatio="xMidYMid meet">
<metadata>
Created by potrace 1.15, written by Peter Selinger 2001-2017
</metadata>
<g transform="translate(0.000000,720.000000) scale(0.100000,-0.100000)"
fill="#000000" stroke="none">
<path d="M0 5375 c0 -1263 3 -1825 10 -1825 6 0 22 11 36 25 14 14 27 25 30
25 8 0 64 42 179 136 55 44 123 95 150 114 28 18 109 77 180 130 270 200 724
482 1140 708 124 67 472 243 560 283 28 12 109 49 180 82 157 72 247 110 425
178 74 28 173 66 220 84 207 80 836 280 995 316 44 10 139 32 210 49 193 46
393 90 450 100 28 4 61 12 75 18 14 5 59 13 100 17 41 3 102 13 135 20 33 7
85 16 115 20 128 14 296 36 310 41 16 6 541 52 675 60 208 11 935 21 985 13
30 -5 111 -11 180 -14 183 -8 599 -46 711 -65 30 -6 96 -10 146 -10 53 0 93
-4 95 -10 2 -6 44 -15 93 -21 50 -6 113 -17 140 -24 55 -14 142 -30 220 -41
28 -3 58 -11 67 -15 9 -5 43 -13 75 -19 32 -5 108 -21 168 -35 61 -13 144 -32
185 -40 41 -9 84 -20 95 -26 11 -5 49 -16 85 -23 63 -14 338 -94 529 -155 69
-22 99 -27 113 -20 13 7 18 6 16 -2 -4 -15 39 -39 69 -39 12 0 24 -4 27 -8 3
-5 33 -17 68 -27 35 -10 68 -22 73 -26 6 -4 40 -16 78 -28 37 -11 77 -25 88
-32 12 -6 67 -26 122 -45 56 -19 118 -42 137 -51 19 -9 46 -21 60 -28 14 -6
37 -11 52 -10 15 0 25 -2 22 -6 -2 -4 13 -15 34 -24 20 -9 59 -28 86 -41 56
-27 76 -30 94 -12 9 9 12 8 12 -6 0 -21 38 -55 61 -56 9 0 46 -16 82 -35 36
-19 75 -35 86 -35 12 0 21 -5 21 -10 0 -15 66 -44 84 -37 9 4 23 24 32 47 9
22 20 38 24 35 12 -7 100 103 100 125 0 10 -6 21 -12 23 -8 3 -6 6 5 6 10 1
24 15 32 34 8 17 14 28 15 22 0 -5 7 1 16 13 13 19 18 21 27 10 7 -7 11 -11
10 -9 -2 2 6 10 17 18 11 8 20 22 19 31 0 10 -3 12 -6 5 -2 -7 -9 -13 -14 -13
-11 0 22 49 34 50 4 0 7 -8 7 -17 0 -14 9 -18 43 -18 54 0 71 13 107 84 16 31
29 50 30 43 0 -8 6 -12 13 -9 23 8 47 -12 42 -36 -2 -12 -1 -38 4 -57 8 -29
10 -32 16 -15 6 19 73 70 82 62 2 -2 -8 -26 -22 -53 -14 -27 -28 -65 -31 -84
l-6 -35 42 44 c30 31 45 40 50 31 6 -9 21 -11 49 -6 44 7 45 5 41 -57 -1 -15
2 -27 7 -26 4 1 16 -1 26 -6 10 -4 23 -2 32 5 8 6 19 9 25 5 6 -4 17 -2 24 4
20 16 96 41 96 31 0 -5 -20 -18 -44 -30 -36 -19 -48 -32 -74 -88 -17 -37 -29
-69 -26 -71 2 -2 15 1 30 7 29 14 64 1 64 -23 0 -18 14 -19 32 -2 44 41 44 41
42 -45 -1 -61 -6 -86 -20 -101 -11 -14 -13 -22 -6 -25 7 -2 1 -14 -13 -28 -14
-13 -26 -23 -29 -22 -2 2 -13 -5 -24 -15 -12 -11 -25 -16 -30 -13 -5 3 -15 -1
-22 -9 -7 -8 -16 -13 -20 -10 -5 3 -18 -7 -29 -22 -15 -20 -19 -22 -15 -8 10
28 34 55 51 55 7 0 16 7 19 15 4 8 12 15 19 15 8 0 17 10 20 23 4 12 17 38 30
57 26 39 40 90 26 90 -19 0 -41 -12 -36 -21 3 -4 -7 -16 -22 -26 -15 -9 -44
-33 -63 -53 -19 -19 -47 -44 -61 -55 -24 -18 -90 -115 -96 -140 -1 -5 -5 -21
-9 -34 -5 -17 -4 -22 4 -17 8 5 10 -2 6 -24 -6 -27 -4 -30 19 -30 17 0 45 16
77 45 27 24 60 49 72 56 13 6 31 19 41 27 10 9 28 17 40 19 48 7 117 35 117
48 0 8 20 18 53 24 58 12 117 11 117 -3 0 -4 -12 -6 -27 -3 -33 6 -88 -17
-109 -47 -8 -11 -19 -38 -25 -58 -5 -21 -14 -38 -20 -38 -6 0 -6 6 0 18 7 14
5 21 -10 31 -23 14 -55 7 -63 -14 -3 -8 -11 -15 -19 -15 -7 0 -31 -18 -52 -40
-21 -22 -44 -40 -50 -40 -13 0 -55 -54 -55 -70 0 -6 12 -9 28 -8 21 2 28 -2
30 -19 4 -30 27 -29 98 3 31 14 58 23 61 21 2 -3 -12 -17 -31 -32 -47 -36 -47
-62 -1 -71 20 -3 35 -12 35 -20 0 -8 6 -14 13 -14 16 -1 57 -35 57 -49 0 -6
17 -19 39 -30 21 -11 52 -31 68 -45 17 -14 50 -34 74 -44 25 -11 51 -27 58
-36 8 -9 23 -22 33 -27 17 -9 18 41 18 1546 l0 1555 -6400 0 -6400 0 0 -1825z"/>
<path d="M7164 5778 c-3 -10 -13 -18 -22 -18 -11 0 -13 -3 -5 -11 5 -5 29 -10
52 -11 22 0 41 -4 41 -8 0 -5 20 -21 45 -37 25 -15 45 -31 45 -35 0 -5 8 -8
17 -8 10 0 27 -12 38 -26 16 -20 31 -27 67 -29 25 -1 51 -6 57 -9 6 -4 16 -4
22 0 7 4 10 1 7 -6 -5 -17 -93 -22 -128 -7 -14 5 -29 11 -35 12 -33 4 -106 29
-111 36 -3 5 -15 9 -27 9 -23 0 -83 19 -105 33 -6 5 -32 5 -55 2 -24 -4 -139
1 -255 10 -157 13 -219 15 -239 7 -16 -6 -49 -14 -74 -18 -36 -4 -52 -13 -68
-35 l-22 -29 47 0 c54 0 126 19 118 31 -3 5 7 9 23 10 15 0 37 2 48 5 42 9
115 -7 126 -28 9 -18 8 -19 -18 -18 -68 5 -72 3 -66 -34 5 -33 4 -35 -31 -42
-21 -3 -59 -4 -86 0 -49 7 -49 6 -47 -21 2 -28 1 -28 -55 -28 -32 0 -62 -5
-69 -12 -10 -11 -5 -13 25 -13 20 0 35 -3 32 -8 -2 -4 14 -8 37 -9 23 -1 97
-5 165 -10 119 -8 122 -9 109 -27 -13 -17 -19 -18 -60 -8 -61 16 -87 15 -87
-2 0 -8 -7 -17 -16 -20 -20 -8 -8 -26 17 -26 11 0 17 -5 14 -10 -4 -6 5 -5 19
2 32 14 33 25 4 31 -13 2 -4 5 19 6 23 0 44 -3 47 -8 4 -5 -3 -7 -14 -4 -16 4
-20 0 -20 -17 0 -16 4 -20 15 -16 14 5 20 -5 16 -27 -1 -4 4 -7 11 -6 26 3 39
-1 33 -11 -3 -5 -42 -10 -85 -10 -70 0 -82 -3 -106 -25 l-27 -25 24 -9 c23
-10 12 -16 -21 -11 -10 1 -9 -3 5 -13 11 -9 23 -13 28 -10 4 2 64 7 133 9 120
4 125 4 119 -15 -5 -16 -1 -18 27 -16 19 1 37 10 43 21 20 37 33 44 65 38 l31
-7 -31 -18 c-16 -10 -30 -23 -30 -29 0 -12 13 -13 26 -1 5 5 33 12 62 16 49 6
54 5 59 -14 5 -21 23 -30 23 -11 0 6 25 10 55 10 54 0 62 -6 56 -42 0 -4 5 -5
13 -2 8 3 16 -4 20 -18 6 -22 7 -22 20 -5 14 18 15 18 26 -2 8 -17 8 -21 -4
-21 -21 0 -27 -26 -6 -27 16 -1 70 -44 70 -56 0 -12 -72 -18 -86 -6 -8 6 -16
10 -18 8 -7 -7 13 -49 23 -49 5 0 22 -5 38 -12 15 -6 34 -10 41 -9 7 1 27 -8
44 -21 24 -16 47 -22 84 -23 29 0 56 -3 60 -7 4 -5 0 -8 -9 -8 -34 0 -16 -16
20 -18 21 -2 42 -7 47 -12 17 -17 44 -11 51 10 4 11 15 20 26 20 11 0 17 -4
14 -10 -3 -5 -13 -10 -22 -10 -14 0 -14 -3 2 -20 10 -11 29 -20 42 -20 40 0
26 -25 -14 -26 -61 -2 -111 -9 -119 -17 -4 -4 3 -7 15 -7 12 0 20 -4 16 -9 -3
-5 -1 -12 5 -16 5 -3 10 -3 10 2 0 4 11 13 25 20 20 9 25 8 25 -3 0 -8 7 -14
15 -14 7 0 18 -7 23 -17 7 -11 21 -16 46 -15 32 1 35 -1 32 -21 -2 -16 -10
-22 -29 -23 -15 -1 -27 3 -27 9 0 5 -6 7 -14 4 -7 -3 -18 -1 -24 5 -6 6 -12 6
-16 -1 -4 -6 -22 -11 -41 -11 -19 0 -37 -4 -40 -10 -3 -5 3 -10 14 -10 11 0
28 -8 38 -18 10 -11 26 -22 36 -25 9 -4 17 -14 17 -23 0 -13 -6 -15 -27 -9
-15 3 -31 12 -35 18 -6 9 -8 9 -8 0 0 -9 -14 -12 -40 -11 -22 1 -40 5 -40 10
0 4 -9 8 -19 8 -10 0 -22 7 -25 16 -5 12 0 15 24 12 16 -1 28 2 27 7 -1 6 -5
9 -9 8 -5 -2 -8 2 -8 7 0 6 7 10 16 10 13 0 14 3 5 14 -10 12 -7 15 17 14 16
-1 34 2 41 6 18 11 13 26 -9 26 -12 0 -20 7 -21 18 0 14 -2 13 -9 -4 -8 -21
-38 -39 -48 -29 -3 2 3 7 12 11 9 3 16 10 16 15 0 11 -50 1 -69 -15 -14 -11
-160 -12 -258 -2 -24 2 -43 0 -43 -5 0 -11 26 -13 98 -10 29 2 58 -1 65 -7 22
-17 77 -25 92 -12 12 10 16 9 21 -3 3 -9 13 -13 25 -10 10 3 19 1 19 -5 0 -14
-41 -26 -49 -14 -3 5 -15 6 -26 2 -19 -7 -19 -7 2 -18 12 -7 29 -12 37 -12 9
0 16 -4 16 -9 0 -5 -20 -6 -45 -3 -31 3 -45 1 -45 -7 0 -7 6 -11 13 -10 33 4
39 -4 12 -17 l-30 -15 42 6 c47 6 67 -10 31 -24 -20 -9 -19 -10 15 -10 25 -1
37 3 37 13 0 9 7 12 20 9 11 -3 27 0 34 7 18 14 56 -3 56 -25 0 -20 -26 -19
-34 2 -5 12 -9 14 -18 5 -7 -7 -18 -12 -26 -12 -16 0 -42 -24 -42 -39 0 -6
-17 -22 -39 -36 -32 -22 -45 -25 -82 -19 -35 5 -42 4 -32 -6 6 -7 28 -14 49
-16 21 -2 42 -8 48 -14 5 -5 15 -10 20 -10 6 0 3 5 -7 11 -17 10 -16 13 15 34
18 13 37 21 41 18 15 -9 34 17 29 42 -4 21 0 25 19 25 22 0 22 0 3 -15 -10 -8
-14 -15 -7 -15 7 0 22 -10 33 -22 19 -21 20 -23 3 -30 -17 -6 -17 -7 0 -7 9
-1 17 -6 17 -12 0 -7 -11 -9 -29 -6 l-29 6 15 -29 c8 -17 20 -30 28 -30 7 0
18 -7 25 -15 7 -8 25 -15 40 -15 23 0 27 4 26 27 -1 20 4 29 19 32 17 3 18 1
6 -13 -11 -14 -11 -16 2 -16 8 0 18 -7 21 -16 9 -22 8 -24 -9 -24 -13 0 -14
-4 -5 -20 6 -11 15 -18 21 -15 8 6 14 -16 10 -39 -1 -5 12 -6 29 -3 16 4 30 2
30 -3 0 -18 43 -51 54 -40 18 18 31 10 32 -21 1 -30 0 -31 -35 -25 -90 17
-174 25 -185 18 -6 -4 16 -10 49 -14 102 -12 136 -20 132 -31 -4 -13 -46 -17
-53 -5 -6 10 -24 1 -24 -13 0 -5 12 -9 26 -9 23 0 25 -3 20 -25 -5 -20 -3 -24
11 -22 10 1 19 -2 21 -8 1 -6 -26 -11 -63 -13 -53 -2 -65 -6 -65 -20 0 -12 2
-14 8 -4 6 9 27 11 80 6 63 -6 70 -9 62 -24 -5 -10 -7 -20 -4 -23 3 -3 -3 -15
-14 -27 -17 -19 -27 -21 -64 -15 -23 4 -61 14 -83 22 -22 8 -61 15 -87 15 -43
1 -46 3 -28 15 13 9 32 11 59 7 28 -4 41 -3 41 5 0 6 -11 11 -24 11 -14 0 -28
5 -32 11 -4 7 0 9 13 5 11 -4 31 -2 44 3 21 9 19 10 -18 10 -24 1 -43 5 -43
11 0 9 -43 5 -80 -6 -11 -4 -11 -7 -2 -13 15 -9 -75 -7 -105 3 -13 4 -23 12
-23 17 0 6 -5 7 -11 4 -6 -4 -20 2 -32 13 -12 11 -51 30 -87 41 -44 14 -53 19
-27 15 28 -4 39 -1 43 10 7 17 -17 46 -38 46 -8 0 -23 7 -34 15 -18 14 -18 14
7 15 33 0 79 22 79 37 0 7 -6 10 -14 7 -8 -3 -17 -1 -20 4 -3 5 5 12 19 14 13
3 22 2 20 -3 -3 -4 -1 -10 5 -14 5 -3 10 1 10 9 0 10 10 14 32 14 18 -1 34 4
36 10 6 19 42 14 42 -5 0 -9 3 -13 7 -10 3 4 15 0 25 -10 17 -16 18 -15 16 8
-3 19 -15 28 -67 46 -35 13 -67 21 -69 18 -3 -3 -11 0 -19 6 -7 6 -13 8 -13 4
0 -4 -6 -2 -14 4 -11 9 -20 9 -34 2 -16 -8 -21 -7 -26 5 -4 10 -13 13 -25 9
-26 -8 -48 20 -31 40 9 11 16 13 24 5 15 -15 43 -12 50 5 3 8 16 15 28 15 23
1 23 1 3 16 -12 9 -32 13 -50 10 -16 -2 -24 -2 -17 1 20 8 14 21 -10 21 -48 2
-73 9 -73 22 0 14 14 18 78 22 24 1 37 7 37 16 0 10 -6 12 -20 8 -11 -3 -29
-9 -40 -12 -12 -4 -20 -2 -20 5 0 6 6 11 13 12 6 1 1 4 -12 8 -17 4 -28 17
-33 39 -9 35 -19 40 -38 17 -7 -8 -15 -15 -19 -15 -9 0 -7 48 2 57 4 3 7 12 7
20 0 10 -10 12 -38 7 -27 -4 -43 -2 -53 9 -15 15 -129 20 -129 6 0 -13 28 -29
41 -24 8 3 32 -4 54 -15 21 -11 47 -20 56 -20 10 0 19 -11 22 -27 3 -16 9 -39
12 -54 5 -21 2 -27 -20 -37 -14 -7 -34 -12 -43 -12 -15 1 -14 3 3 16 14 11 15
15 5 14 -29 -4 -38 0 -43 23 -5 19 -13 22 -52 23 -46 1 -47 0 -43 -28 3 -16 0
-28 -6 -28 -19 1 -100 25 -114 33 -7 5 -14 3 -17 -5 -9 -24 0 -89 14 -97 21
-14 -52 -53 -83 -45 -26 6 -36 -8 -15 -22 8 -5 6 -10 -5 -16 -9 -5 -14 -13
-11 -19 4 -5 -8 -9 -24 -9 -21 0 -31 5 -31 15 0 8 -4 15 -10 15 -5 0 -10 -7
-10 -15 0 -8 -9 -15 -20 -15 -11 0 -20 -4 -20 -10 0 -5 -11 -10 -25 -10 -14 0
-25 -4 -25 -10 0 -5 -12 -10 -26 -10 -14 0 -34 -5 -45 -11 -22 -11 -138 18
-146 37 -2 6 -17 9 -32 6 -22 -3 -32 1 -40 17 -10 19 -9 21 13 21 14 0 28 5
31 10 4 6 15 8 25 5 10 -3 21 -1 25 5 4 6 20 8 42 4 26 -5 34 -4 29 5 -5 7 0
11 13 11 11 0 23 5 26 10 3 6 27 10 52 10 37 0 43 -2 34 -14 -9 -11 -6 -15 17
-19 40 -8 74 2 68 20 -3 8 -6 16 -6 19 0 2 -6 1 -13 -2 -7 -2 -21 2 -32 11
-16 12 -17 14 -2 9 24 -8 22 8 -3 24 -17 10 -21 10 -26 -1 -4 -11 -27 -13 -99
-11 -107 2 -145 11 -124 26 11 8 10 8 -4 4 -59 -19 -68 -19 -74 3 -6 25 -25
28 -22 4 3 -31 -1 -43 -12 -43 -6 0 -8 9 -4 20 5 15 3 18 -9 14 -9 -3 -13 -11
-9 -18 4 -6 -1 -5 -10 3 -9 7 -23 26 -31 42 -12 25 -12 29 0 29 8 0 14 5 14
11 0 5 5 7 10 4 6 -4 7 -13 1 -24 -11 -20 2 -50 13 -32 4 6 12 9 17 6 5 -4 9
-2 9 4 0 5 -6 12 -12 14 -10 4 -9 8 2 16 9 6 16 7 18 1 5 -14 22 -12 19 2 -1
6 7 14 17 16 25 5 55 42 49 60 -4 10 1 11 23 6 24 -5 27 -4 17 7 -7 7 -13 16
-13 20 0 10 109 0 131 -12 25 -13 156 -12 143 1 -15 15 -188 99 -193 94 -8 -8
37 -43 62 -49 14 -4 28 -13 31 -21 7 -17 -3 -18 -40 -1 -16 8 -44 20 -62 28
l-33 14 19 23 c15 17 29 21 64 20 42 -2 78 13 78 32 0 4 -19 11 -42 15 -33 5
-39 9 -24 14 12 5 16 10 9 14 -6 4 -18 4 -27 1 -9 -3 -16 -1 -16 5 0 6 8 11
17 11 16 0 16 1 1 16 -15 15 -15 19 3 50 19 34 9 49 -10 17 -10 -17 -12 -17
-25 1 -8 10 -19 15 -24 12 -5 -3 -12 4 -16 17 -4 16 -8 19 -14 9 -5 -7 -13
-12 -18 -11 -5 2 -24 -1 -42 -5 -44 -10 -54 1 -14 15 27 9 30 13 18 25 -8 8
-24 14 -35 14 -12 0 -21 4 -21 9 0 11 51 19 140 24 36 2 79 9 95 17 l30 14
-38 5 c-21 3 -37 11 -37 16 0 6 -30 11 -67 12 -56 1 -63 -1 -40 -9 15 -5 27
-16 27 -23 0 -16 -42 -28 -51 -14 -6 11 -27 16 -69 19 l-25 2 28 10 c15 5 27
14 27 20 0 16 -78 3 -99 -16 -10 -9 -33 -16 -52 -16 -19 1 -63 -2 -98 -6 -48
-5 -62 -4 -57 5 6 8 0 10 -19 5 -23 -6 -26 -4 -23 12 2 14 12 19 35 19 17 0
35 3 39 8 4 4 0 7 -9 7 -10 0 -17 7 -17 15 0 19 -19 20 -26 1 -4 -11 -10 -11
-30 -2 -13 6 -24 14 -24 19 0 4 -7 7 -15 7 -27 0 -16 18 19 30 18 6 38 10 42
9 21 -4 31 3 42 25 7 16 22 26 46 30 25 5 34 11 29 21 -5 16 11 18 94 15 30
-1 47 4 63 20 15 15 17 22 7 26 -25 9 -66 9 -66 -1 0 -5 9 -9 20 -8 10 2 19
-2 19 -7 0 -9 -33 -15 -55 -10 -5 2 -19 2 -30 2 -28 -2 -65 18 -65 36 0 11 -7
13 -32 7 -18 -4 -41 -8 -50 -8 -10 -1 -18 -9 -18 -19 0 -22 -13 -23 -30 -3 -7
8 -19 15 -27 15 -8 0 -11 5 -8 10 4 6 -12 10 -39 10 -25 0 -46 -4 -46 -10 0
-5 5 -10 10 -10 14 0 12 -38 -2 -42 -7 -3 -3 -7 9 -10 14 -4 29 1 42 13 26 24
42 24 69 -1 12 -11 28 -20 36 -20 22 0 28 -17 9 -24 -15 -6 -15 -8 -3 -16 9
-6 10 -10 3 -10 -6 0 -22 10 -36 22 -16 14 -38 22 -68 22 -150 5 -158 6 -178
27 -11 12 -17 27 -14 35 3 9 -2 14 -15 14 -11 0 -22 5 -24 12 -2 6 -29 12 -62
14 -49 3 -56 1 -46 -11 7 -8 20 -17 31 -20 10 -4 19 -15 19 -27 0 -13 5 -18
14 -15 8 3 22 -1 33 -9 17 -14 16 -15 -9 -11 -15 2 -25 0 -22 -4 3 -5 3 -13 0
-18 -8 -12 -86 28 -86 45 0 8 -4 14 -10 14 -5 0 -10 -4 -10 -8 0 -15 -51 -12
-78 6 -14 9 -23 11 -19 5 5 -7 4 -13 -2 -13 -5 0 -13 5 -16 10 -4 6 -11 8 -16
5 -5 -4 -15 -3 -21 2 -16 10 -78 11 -78 1 0 -5 6 -9 13 -9 6 -1 22 -3 34 -4
13 -1 30 -8 39 -16 9 -7 26 -14 37 -16 28 -4 52 -34 36 -44 -6 -4 -9 -11 -5
-17 3 -5 -6 -12 -19 -15 -14 -2 -28 0 -31 4 -3 5 0 9 7 9 8 0 8 4 -1 16 -16
19 -56 41 -46 25 4 -6 -4 -9 -24 -8 -18 1 -30 8 -30 16 0 10 -3 11 -14 2 -11
-9 -15 -9 -19 1 -4 10 -8 10 -16 -2 -9 -12 -11 -11 -11 8 0 13 -6 22 -15 22
-17 0 -21 -35 -5 -45 14 -9 12 -25 -3 -25 -7 0 -18 9 -25 20 -7 11 -19 20 -28
20 -8 0 -12 5 -9 10 3 6 -1 10 -9 10 -10 0 -16 9 -16 25 0 26 -15 34 -23 13
-3 -10 -9 -10 -24 -2 -11 7 -31 10 -45 7 -14 -3 -29 0 -32 6 -10 16 -26 13
-26 -4 0 -19 -10 -19 -40 2 -18 13 -42 17 -94 15 -38 -1 -72 -6 -75 -11 -9
-14 -58 -31 -87 -31 -14 0 -22 4 -19 10 3 6 18 10 32 10 25 0 77 33 67 43 -3
3 4 10 15 17 12 6 21 17 21 24 0 29 43 41 135 38 157 -5 179 -6 234 -2 36 2
56 -1 59 -8 2 -7 9 -12 15 -12 15 0 101 43 105 53 2 4 20 7 39 7 32 0 62 20
63 42 0 4 -20 10 -45 14 -49 7 -70 23 -33 25 32 2 52 -2 58 -10 7 -9 57 -28
95 -36 23 -4 36 0 54 16 16 15 30 20 51 15 37 -7 45 6 20 29 -24 22 -26 35 -5
35 8 0 23 4 33 9 9 6 30 12 45 16 34 7 28 21 -14 30 -24 5 -30 11 -26 26 8 32
-10 31 -22 -1 -10 -29 -23 -42 -18 -17 1 6 -5 12 -13 12 -8 0 -15 -6 -15 -14
0 -8 -12 -16 -27 -18 -35 -5 -36 4 -2 17 16 7 24 16 22 28 -3 15 -16 17 -118
15 -63 0 -133 -3 -155 -6 -64 -8 -214 -20 -221 -18 -4 2 -10 -2 -13 -8 -4 -6
-50 -13 -103 -15 -133 -6 -269 -33 -288 -56 -10 -13 -120 -27 -120 -16 0 6
-11 -2 -25 -17 -17 -18 -37 -27 -58 -28 -18 -1 -43 -4 -56 -8 -20 -5 -22 -8
-9 -19 9 -7 25 -11 36 -10 11 2 22 -1 24 -7 4 -13 -49 -15 -83 -2 -20 8 -38 7
-68 -3 -52 -17 -52 -30 0 -30 43 0 49 -15 13 -34 -10 -6 -31 -19 -45 -28 -26
-17 -120 -24 -170 -12 -24 5 -26 3 -22 -18 3 -18 -3 -27 -31 -42 -32 -17 -34
-20 -18 -32 16 -11 15 -13 -11 -23 -16 -6 -33 -11 -38 -11 -5 0 -9 -5 -9 -11
0 -6 -6 -9 -12 -6 -48 19 -51 20 -44 9 5 -8 2 -10 -8 -6 -19 7 -21 20 -3 27 6
3 1 6 -13 7 -61 5 -83 10 -98 22 -9 7 -13 8 -9 2 7 -13 -94 -64 -128 -64 -13
0 -27 5 -30 10 -4 6 5 10 20 10 19 0 29 6 32 20 3 12 11 19 17 17 15 -6 48 12
41 22 -9 15 -115 -12 -115 -29 0 -13 -134 -4 -138 9 -6 18 -22 12 -22 -8 0
-16 -11 -21 -62 -29 -35 -5 -50 -10 -35 -11 44 -2 27 -24 -29 -39 -27 -7 -85
-17 -129 -22 -52 -6 -84 -14 -91 -25 -6 -8 -25 -15 -42 -15 -23 0 -31 -5 -36
-23 -3 -13 -27 -46 -53 -73 -37 -38 -55 -49 -81 -50 -52 -2 -60 -26 -8 -26 33
-1 24 -15 -14 -23 -16 -4 -32 -11 -35 -16 -4 -5 -15 -9 -26 -9 -11 0 -17 5
-14 10 4 6 11 8 16 5 15 -10 10 7 -7 26 -12 14 -13 22 -4 38 13 25 10 25 -36
6 -34 -14 -36 -17 -30 -50 5 -27 3 -37 -9 -41 -8 -3 -15 -12 -15 -20 0 -8 -10
-14 -23 -14 -26 0 -59 -33 -52 -52 8 -22 -39 -64 -107 -96 -37 -17 -69 -36
-73 -42 -6 -10 -45 -14 -45 -5 0 3 16 19 35 36 41 36 47 64 13 53 -13 -4 -25
-10 -28 -15 -10 -16 -77 -56 -106 -64 -24 -7 -26 -9 -9 -13 20 -4 35 -19 35
-35 0 -5 -10 -5 -22 -2 -14 5 -43 -3 -87 -23 -89 -40 -126 -52 -191 -64 -30
-5 -56 -13 -58 -18 -6 -15 -32 -12 -32 4 0 8 13 17 28 21 15 3 50 21 77 40 27
19 59 35 72 35 28 0 83 53 83 80 0 11 7 20 15 20 20 0 19 16 -1 24 -20 8 -146
-37 -194 -68 -19 -13 -45 -26 -58 -30 -12 -4 -20 -11 -17 -15 8 -14 -29 -38
-69 -44 -45 -7 -56 -15 -37 -26 9 -6 -2 -14 -35 -26 -27 -9 -86 -32 -131 -51
-45 -19 -86 -34 -92 -34 -6 0 -11 -4 -11 -10 0 -5 -4 -10 -9 -10 -7 0 -88 -45
-161 -90 -8 -5 -35 -20 -60 -32 -25 -13 -47 -26 -50 -29 -3 -3 -12 -8 -20 -12
-8 -3 -37 -20 -65 -36 -27 -17 -65 -38 -83 -47 -34 -17 -76 -67 -65 -78 3 -3
1 -6 -6 -6 -7 0 -55 -20 -106 -44 -82 -39 -193 -111 -289 -188 -16 -13 -48
-34 -70 -48 -23 -14 -77 -52 -120 -85 -43 -33 -92 -70 -110 -82 -64 -46 -80
-59 -107 -80 -15 -13 -31 -23 -35 -23 -5 0 -31 -21 -59 -45 -27 -25 -76 -64
-107 -87 l-58 -43 0 -1712 0 -1713 6400 0 6400 0 0 1988 -1 1987 -105 69 c-99
64 -109 68 -150 63 -48 -5 -53 -1 -27 18 16 12 16 14 1 29 -24 24 -60 35 -94
28 -27 -5 -28 -4 -15 12 13 15 13 19 0 27 -29 18 -134 -16 -281 -94 -54 -28
-98 -54 -98 -59 0 -4 -6 -8 -14 -8 -15 0 -28 -24 -19 -34 4 -3 17 -6 30 -6 26
0 30 -12 9 -33 -12 -12 -7 -13 37 -10 l52 4 -30 -25 c-16 -14 -24 -26 -17 -26
15 0 56 -40 48 -47 -21 -21 97 -73 168 -73 l41 -1 -26 -14 c-20 -11 -25 -20
-22 -39 5 -24 4 -25 -25 -14 -17 7 -28 16 -26 20 5 8 -45 0 -55 -8 -2 -2 6
-15 18 -30 24 -30 18 -53 -8 -30 -10 9 -25 16 -34 16 -9 0 -19 5 -22 10 -9 15
-47 12 -71 -5 -17 -11 -28 -12 -57 -3 -26 8 -52 8 -94 0 -93 -17 -213 -48
-278 -70 -80 -27 -167 -42 -162 -28 2 6 19 13 38 16 37 5 53 35 25 46 -22 9
-124 -34 -137 -57 -8 -16 -6 -19 18 -20 25 0 26 -1 8 -9 -11 -4 -35 -22 -53
-38 l-34 -30 24 -13 c12 -7 52 -19 88 -25 l65 -12 -65 -2 c-58 -2 -62 -3 -37
-13 34 -14 36 -31 2 -25 -14 3 -28 1 -31 -3 -3 -5 -18 -9 -35 -9 -29 0 -41
-22 -19 -35 19 -12 10 -27 -12 -22 -26 7 -132 -39 -123 -53 10 -17 -18 -23
-30 -6 -12 16 -16 15 -54 -5 -48 -25 -60 -38 -34 -40 10 -1 3 -4 -16 -8 -27
-5 -42 -18 -72 -61 -21 -30 -46 -70 -54 -87 -9 -18 -20 -33 -25 -33 -18 0 -10
26 15 56 27 32 59 114 44 114 -16 0 -10 22 12 41 12 11 19 25 15 34 -3 9 0 15
8 15 8 0 13 12 14 30 1 36 2 35 -48 10 -51 -26 -55 -25 -32 8 46 66 32 79 -70
63 -35 -5 -72 -9 -83 -8 -11 0 -40 -2 -65 -6 -25 -3 1 5 58 20 107 26 132 41
44 25 -28 -5 -56 -6 -63 -2 -6 5 12 11 42 16 l54 9 -55 6 -55 6 55 2 c30 2 66
6 80 10 23 7 23 8 5 14 -11 3 -62 9 -113 13 -96 7 -118 18 -35 17 78 -1 -88
24 -240 36 -132 11 -176 22 -141 35 19 7 191 -9 262 -25 66 -14 331 -41 342
-34 30 19 -13 95 -54 95 -29 0 -56 -19 -50 -35 8 -20 -23 -20 -89 1 -64 21
-74 29 -58 47 6 8 9 22 5 31 -5 12 0 16 19 16 15 0 37 5 50 11 30 14 25 45 -9
53 -15 4 -21 11 -18 21 4 8 1 15 -5 15 -7 0 -28 7 -48 15 -28 12 -33 18 -24
29 9 11 3 21 -30 50 -24 20 -51 36 -60 36 -11 0 -16 5 -13 13 3 9 -23 33 -70
66 -42 28 -79 57 -83 64 -5 7 -24 24 -43 37 -53 38 -70 53 -70 67 0 7 -6 10
-12 8 -7 -3 -41 22 -76 54 -35 32 -89 76 -120 97 -31 21 -75 52 -97 69 -22 17
-75 53 -118 79 -43 27 -95 63 -115 82 -20 19 -40 34 -44 34 -4 0 -13 6 -20 13
-7 7 -56 39 -108 71 -52 32 -97 62 -100 66 -9 11 -207 130 -252 150 -23 10
-46 16 -52 13 -5 -3 -6 -1 -2 5 8 13 -108 92 -136 92 -10 0 -16 -4 -13 -10 9
-15 -27 -11 -49 5 -11 8 -27 15 -37 15 -16 0 -46 27 -38 34 2 2 22 -2 44 -11
69 -25 82 -26 48 -3 -18 12 -33 26 -33 31 0 4 -16 11 -35 15 -19 3 -39 12 -45
19 -6 8 -26 17 -43 21 -18 3 -38 11 -45 17 -9 7 -11 6 -6 -6 3 -9 26 -24 50
-33 28 -11 41 -21 36 -26 -6 -6 -32 2 -68 21 -33 16 -72 33 -89 37 -35 8 -148
69 -164 88 -10 12 -6 13 21 7 18 -4 50 -14 70 -21 34 -12 39 -12 50 3 12 15
20 14 98 -20 47 -20 87 -40 90 -44 10 -14 101 -79 110 -79 13 0 42 -16 94 -52
56 -40 86 -37 49 4 -30 33 28 16 100 -31 20 -13 40 -21 43 -18 3 3 -7 14 -23
24 -40 25 -67 52 -61 58 11 11 90 -14 109 -34 11 -12 24 -21 29 -21 6 0 10 -6
10 -14 0 -9 18 -15 52 -19 28 -4 59 -13 67 -22 11 -11 12 -15 2 -15 -7 0 0
-10 16 -23 47 -38 108 -77 121 -77 7 0 28 -15 48 -34 33 -31 34 -34 14 -39
-11 -3 -38 2 -60 10 -41 16 -69 10 -37 -8 9 -6 17 -15 17 -22 0 -9 -2 -9 -8
-1 -11 18 -123 77 -130 69 -7 -7 36 -44 52 -45 5 0 34 -17 65 -38 31 -20 73
-46 95 -57 21 -11 57 -37 79 -58 22 -22 52 -46 66 -55 56 -33 136 -88 151
-102 38 -34 117 -90 127 -90 4 0 24 -15 43 -33 76 -69 117 -96 141 -91 13 2
18 2 12 -2 -21 -9 -15 -21 9 -20 16 1 23 -5 23 -18 0 -11 6 -21 13 -23 8 -3
10 1 5 13 -5 15 -1 14 27 -6 18 -13 30 -18 26 -11 -7 10 -4 11 13 2 11 -7 21
-16 21 -21 0 -5 9 -12 20 -15 11 -3 20 -13 20 -21 0 -8 4 -14 8 -14 5 0 41
-25 80 -56 53 -41 76 -53 87 -46 14 7 10 15 -24 45 -22 20 -38 42 -36 50 4 8
-10 19 -37 30 -56 23 -93 52 -84 65 4 7 17 7 42 0 35 -9 58 -4 38 10 -11 8
-46 62 -40 62 2 0 20 -16 39 -35 19 -19 33 -35 30 -35 -3 0 0 -7 7 -15 7 -8
23 -15 35 -15 25 0 52 25 36 34 -15 10 -1 44 34 79 36 36 55 37 55 3 0 -27
-18 -46 -43 -46 -10 0 -26 -7 -35 -16 -15 -15 -14 -16 8 -9 21 6 23 5 13 -6
-17 -17 -16 -32 1 -26 13 5 36 -10 36 -24 0 -3 -18 -5 -39 -4 -62 4 -66 -7
-20 -58 22 -26 45 -47 49 -47 5 0 18 9 28 20 21 22 67 24 84 3 16 -19 45 -16
51 6 2 10 23 27 46 37 22 10 41 21 41 26 0 4 -13 17 -30 29 -16 12 -27 26 -25
30 3 4 1 18 -4 31 -7 19 -5 27 9 36 10 6 21 8 24 4 14 -13 37 -9 46 8 5 9 6
20 3 24 -3 3 -1 6 5 6 6 0 15 -6 19 -14 11 -18 49 -37 57 -29 12 13 36 11 36
-2 0 -23 42 -42 68 -31 29 14 28 17 -10 60 -35 40 -58 46 -58 17 0 -28 -37
-15 -44 15 -5 17 -13 24 -31 24 -13 0 -27 -5 -30 -10 -10 -16 -35 8 -35 31 0
11 -4 19 -9 19 -9 0 -21 49 -27 113 -2 21 1 37 7 37 16 0 41 -29 35 -39 -7
-10 52 -34 64 -26 5 3 11 1 15 -5 4 -6 11 -8 16 -5 5 4 9 1 9 -6 0 -16 48 -59
66 -59 7 0 14 4 14 9 0 4 13 8 30 7 16 -1 30 -5 30 -10 0 -4 9 -6 20 -3 11 3
20 1 20 -5 0 -5 5 -6 10 -3 6 3 18 -2 27 -11 13 -13 14 -19 5 -22 -14 -4 -17
-32 -3 -32 5 0 12 12 17 28 7 25 8 24 14 -18 l7 -45 8 32 c4 18 11 31 15 28
18 -11 73 281 61 323 -5 15 -6 33 -4 40 3 6 -3 12 -12 12 -12 0 -16 -6 -12
-19 3 -14 -2 -20 -19 -24 -20 -3 -24 0 -24 18 0 14 -7 25 -20 28 -11 3 -20 1
-20 -4 0 -5 -4 -9 -10 -9 -5 0 -10 7 -10 16 0 11 -6 15 -20 11 -15 -4 -20 0
-21 16 0 21 -1 21 -8 2 l-8 -20 -5 20 c-4 12 -7 4 -8 -20 l-2 -40 -16 48 c-15
45 -18 47 -44 42 -27 -6 -28 -5 -28 29 0 26 -7 42 -27 61 -15 14 -32 26 -38
26 -5 1 -17 2 -25 3 -22 2 -39 -34 -34 -74 l4 -35 -18 40 c-13 27 -20 35 -24
25 -3 -9 -10 1 -16 25 -14 50 -25 64 -81 99 l-44 28 7 -71 c6 -63 5 -70 -9
-65 -9 4 -14 13 -11 21 3 8 1 11 -4 8 -6 -3 -10 0 -10 9 0 8 -3 16 -7 18 -5 2
-21 29 -38 61 -16 31 -35 57 -42 57 -7 0 -15 0 -18 0 -3 0 -20 9 -40 20 -21
12 -37 15 -41 9 -8 -13 4 -62 18 -70 6 -4 6 -9 1 -12 -9 -6 -62 64 -63 81 -1
14 -53 45 -76 45 -13 0 -29 6 -35 13 -6 8 -18 14 -25 14 -8 0 -14 4 -14 8 0 4
-11 9 -25 10 -14 1 -35 8 -48 16 -35 22 -208 78 -252 81 -5 1 -28 10 -50 22
-22 11 -74 28 -115 37 -41 10 -80 22 -87 27 -15 13 -75 8 -80 -7 -2 -6 9 -17
24 -24 23 -11 25 -14 10 -18 -10 -2 -26 3 -35 11 -48 41 -126 89 -130 78 -6
-18 -22 -12 -16 7 5 16 5 16 -6 0 -10 -16 -14 -16 -55 4 -25 12 -44 27 -42 33
2 5 -12 18 -32 27 -45 22 -51 22 -51 3 0 -13 -4 -13 -32 2 -18 10 -49 20 -68
23 -19 3 -34 10 -33 16 1 6 -8 9 -21 7 -13 -3 -27 0 -30 6 -4 6 -18 11 -32 11
-13 0 -24 6 -24 13 0 13 -11 14 -89 8 -23 -2 12 -35 54 -51 19 -8 35 -17 35
-22 0 -4 19 -17 42 -29 23 -12 59 -39 80 -60 21 -22 47 -39 58 -39 24 0 37
-20 19 -30 -15 -10 -50 6 -62 27 -12 21 -146 83 -178 83 -15 0 -32 7 -39 15
-10 12 -9 15 6 15 32 0 -18 29 -59 34 -19 2 -48 11 -63 20 -29 16 -28 16 26
10 32 -4 51 -3 47 2 -5 5 -12 9 -15 10 -4 0 -16 4 -27 8 -105 40 -110 41 -99
24 4 -6 3 -9 -2 -6 -5 2 -31 15 -58 27 -39 18 -51 20 -57 9 -7 -10 -12 -11
-29 0 -28 17 -36 15 -17 -6 10 -10 49 -29 88 -42 58 -20 69 -27 65 -42 -3 -15
0 -18 16 -12 14 4 18 2 14 -5 -4 -6 0 -11 8 -11 9 0 16 -4 16 -9 0 -5 11 -12
25 -15 17 -4 22 -11 18 -22 -4 -10 2 -17 16 -21 11 -3 21 -12 21 -20 0 -12 -2
-12 -16 1 -8 9 -20 16 -25 16 -5 0 -38 17 -73 39 -35 21 -77 44 -95 52 -17 8
-31 17 -31 21 0 5 -6 8 -14 8 -7 0 -31 12 -52 27 -105 72 -235 133 -283 133
-23 0 -24 -1 -6 -20 10 -11 24 -20 32 -20 7 0 13 -4 13 -8 0 -5 28 -21 62 -35
34 -15 59 -30 55 -33 -8 -9 -98 27 -121 48 -11 10 -24 18 -29 18 -5 0 -21 8
-35 18 -47 33 -114 53 -257 76 -86 14 -101 12 -71 -10 13 -9 45 -14 89 -14 73
0 137 -21 137 -46 0 -17 -3 -17 -47 1 -19 8 -47 14 -62 14 -17 -1 -20 -3 -8
-6 9 -2 17 -11 17 -18 0 -10 -10 -12 -37 -8 -21 3 -40 10 -41 15 -4 10 -78 44
-106 50 -12 2 -20 -3 -21 -14 -3 -14 4 -18 30 -18 18 0 43 -9 56 -20 l24 -20
-25 4 c-60 11 -140 15 -170 10 l-32 -7 51 -29 c28 -16 51 -34 51 -39 0 -6 -7
-6 -17 0 -10 5 -54 21 -98 36 -44 15 -98 35 -120 45 -22 10 -65 26 -95 36 -30
9 -59 20 -65 24 -18 13 -59 21 -120 25 -59 4 -59 4 -30 -10 30 -15 29 -15 -25
-11 -30 2 -75 9 -100 16 -25 6 -71 15 -103 19 -50 6 -58 4 -63 -11z m403 -288
c6 -9 31 -22 55 -29 73 -22 98 -33 98 -42 0 -5 -8 -10 -17 -10 -17 -2 -36 -4
-58 -8 -17 -2 51 -56 73 -58 25 -2 30 15 7 23 -24 10 -17 22 10 16 14 -2 22
-9 19 -14 -3 -5 2 -9 12 -8 37 4 54 0 54 -14 0 -8 13 -25 30 -39 28 -24 29
-28 24 -88 -3 -44 -1 -65 8 -70 22 -14 -4 -28 -31 -18 -21 8 -22 11 -9 32 8
12 14 27 13 32 -2 21 -36 75 -54 84 -13 7 -17 18 -14 36 7 32 -20 44 -44 19
-13 -12 -14 -19 -5 -22 22 -7 12 -22 -15 -22 -20 0 -45 16 -85 53 -32 29 -58
56 -58 60 0 10 -81 87 -92 87 -13 0 -9 12 9 25 20 15 49 4 70 -25z m-3422
-202 c5 4 5 1 1 -6 -4 -7 -1 -15 8 -18 9 -3 16 -11 16 -18 0 -15 48 -36 67
-29 12 5 14 1 8 -18 -7 -22 -7 -22 9 -6 13 13 27 15 64 10 26 -3 55 -10 65
-15 11 -5 39 -5 74 2 31 5 58 10 59 10 1 0 4 -9 7 -21 4 -16 0 -23 -16 -27
-20 -6 -19 -7 7 -12 20 -3 30 -12 32 -26 3 -17 -2 -21 -26 -22 -17 0 -30 4
-30 9 0 5 5 9 10 9 6 0 10 5 10 10 0 6 -7 10 -15 10 -8 0 -15 -4 -15 -10 0 -5
-7 -10 -15 -10 -8 0 -15 -4 -15 -9 0 -5 -9 -11 -20 -14 -14 -3 -20 0 -20 10 0
12 -7 14 -30 10 -16 -4 -32 -2 -35 3 -4 6 -10 8 -14 6 -4 -3 -13 0 -21 5 -12
8 -12 12 -2 16 16 6 6 23 -14 23 -8 0 -13 -4 -10 -8 2 -4 1 -14 -3 -21 -11
-17 -51 -5 -51 15 0 20 -13 17 -28 -6 -9 -15 -17 -18 -28 -12 -9 5 -33 6 -55
2 -21 -4 -41 -5 -44 -2 -11 12 -4 22 16 22 24 0 59 17 59 29 0 14 -46 29 -73
24 -42 -8 -85 14 -83 42 1 16 4 20 13 14 8 -7 20 -1 40 18 26 27 30 28 59 16
17 -7 35 -9 39 -5z m5650 -95 c22 -3 47 -11 55 -18 28 -24 81 -46 92 -39 7 5
4 10 -10 15 -22 8 -31 29 -12 29 12 0 80 -68 80 -80 0 -6 8 -10 18 -10 10 0
27 -7 38 -15 10 -8 32 -15 48 -15 21 0 27 -4 22 -15 -3 -10 3 -17 19 -21 14
-3 25 -10 25 -14 0 -5 18 -11 40 -15 22 -4 40 -11 40 -16 0 -5 11 -9 24 -9 14
0 31 -6 38 -12 25 -24 54 -36 113 -48 55 -11 90 -34 79 -52 -3 -5 -27 -8 -54
-8 -39 0 -52 4 -60 20 -8 14 -21 20 -46 20 -45 0 -124 20 -124 31 0 5 -9 9
-20 9 -22 0 -26 10 -10 26 19 19 -32 34 -60 19 l-25 -13 28 -13 c15 -7 27 -16
27 -21 0 -4 6 -8 14 -8 15 0 69 -50 62 -58 -11 -11 -60 11 -84 37 -47 51 -137
92 -272 126 -14 4 -34 11 -45 16 -13 7 -30 7 -45 0 -25 -9 -25 -9 11 -25 28
-12 38 -22 41 -45 4 -26 2 -28 -16 -21 -12 5 -33 11 -47 14 -34 7 -73 42 -66
60 4 9 -8 19 -36 30 -23 9 -60 32 -81 50 -35 30 -38 36 -24 49 8 8 40 18 71
22 35 5 58 13 61 22 5 11 13 13 29 8 12 -4 40 -9 62 -12z m-4843 -186 c24 2
52 4 63 5 13 2 19 -2 17 -11 -2 -9 3 -11 15 -6 10 4 33 9 51 12 26 5 31 3 26
-10 -7 -19 23 -27 54 -13 15 6 26 6 33 -1 8 -8 5 -13 -9 -17 -27 -9 -34 -32
-15 -47 12 -11 17 -11 27 1 13 18 120 25 110 8 -5 -8 12 -9 57 -5 62 5 63 5
30 -9 -19 -8 -52 -17 -75 -20 -57 -8 -117 -29 -116 -39 1 -5 -14 -17 -33 -26
-29 -15 -40 -16 -71 -7 -31 10 -43 9 -69 -4 -18 -9 -67 -22 -110 -29 l-78 -13
32 -16 c57 -27 49 -42 -19 -34 -36 4 -62 2 -65 -4 -8 -11 -57 -4 -57 9 0 5 5
9 10 9 6 0 10 5 10 10 0 6 -7 10 -15 10 -8 0 -15 -9 -15 -19 0 -15 -13 -23
-57 -36 -31 -9 -78 -28 -105 -42 -38 -20 -54 -23 -71 -16 -26 12 -94 -14 -100
-38 -4 -14 -11 -15 -49 -7 -40 9 -47 8 -83 -16 -21 -15 -45 -24 -53 -21 -7 3
-19 5 -25 5 -7 0 -4 5 6 11 27 16 20 26 -19 31 -27 3 -39 0 -47 -14 -13 -19
-37 -25 -37 -8 0 5 -11 12 -25 16 -15 4 -25 13 -25 24 0 26 21 36 32 16 11
-20 64 -21 72 -1 3 8 -2 18 -11 23 -11 6 -12 11 -4 16 19 12 33 -5 28 -33 -5
-25 -4 -27 38 -29 30 -1 45 3 49 13 3 8 1 15 -4 15 -6 0 -10 4 -10 9 0 14 37
20 49 8 8 -8 11 -8 11 0 0 6 -6 13 -12 16 -22 7 -5 14 50 20 53 6 73 -7 28
-19 -31 -7 -43 -34 -16 -34 10 0 31 5 45 12 28 12 48 3 25 -12 -13 -8 -13 -10
1 -10 9 0 22 7 29 15 7 8 20 15 30 15 10 0 23 7 30 15 16 19 66 43 99 47 14 2
27 10 29 18 5 13 3 13 -12 1 -12 -10 -20 -11 -28 -3 -13 13 14 26 92 46 48 12
59 29 22 34 -12 2 -20 8 -16 13 3 6 24 7 47 4 23 -3 56 -1 72 4 25 8 26 9 8
10 -13 1 -23 5 -23 11 0 5 -18 8 -40 5 -22 -2 -42 1 -45 6 -4 5 3 9 15 9 11 0
31 6 43 13 15 9 39 11 72 7 l50 -7 -47 -1 c-27 -1 -48 -7 -48 -13 0 -7 17 -10
45 -7 33 2 44 0 40 -9 -3 -8 5 -13 20 -13 26 0 34 -15 13 -23 -8 -4 -7 -6 3
-6 9 -1 24 9 33 22 11 13 15 16 12 6 -3 -13 0 -15 15 -12 14 4 17 9 9 18 -7 9
-3 15 16 24 15 6 24 14 21 17 -3 3 -16 -1 -29 -10 -25 -18 -53 -22 -43 -6 3 6
1 10 -6 10 -6 0 -9 8 -6 20 6 23 -27 48 -38 30 -8 -13 -115 -13 -135 0 -12 7
-8 10 14 10 16 0 26 3 23 7 -8 8 48 43 68 43 8 0 15 6 15 13 0 8 3 7 10 -3 6
-10 23 -14 52 -13z m754 -212 c20 -8 33 -19 29 -25 -4 -6 -17 -5 -36 5 -16 9
-29 12 -29 7 0 -15 24 -32 47 -32 13 0 23 -4 23 -10 0 -5 9 -10 20 -10 11 0
20 -4 20 -10 0 -5 9 -10 20 -10 l20 0 -20 20 c-11 11 -27 20 -35 20 -8 0 -15
5 -15 10 0 17 36 11 64 -11 20 -16 26 -17 26 -6 0 8 -10 22 -22 30 -17 12 -19
16 -7 16 9 1 24 -8 34 -19 13 -14 22 -17 29 -10 16 16 34 12 32 -7 0 -10 6
-18 14 -19 8 0 9 1 3 3 -15 5 -15 6 -7 27 3 9 17 16 30 16 25 0 33 -15 12 -23
-8 -3 -5 -6 6 -6 15 -1 16 -4 6 -16 -10 -12 -9 -16 4 -21 9 -3 25 -4 36 -1 11
3 18 1 14 -4 -3 -5 -27 -9 -55 -9 -36 0 -49 -4 -49 -14 0 -8 -14 -20 -31 -28
-29 -12 -31 -15 -25 -58 5 -41 4 -43 -9 -26 -14 18 -52 16 -40 -3 3 -5 1 -12
-5 -16 -6 -4 -8 -11 -4 -16 3 -6 10 -6 17 -1 13 10 57 22 72 19 6 -1 9 -8 8
-17 -2 -9 0 -10 3 -2 8 18 22 15 29 -8 3 -11 13 -20 20 -20 9 0 12 6 9 15 -5
11 -2 13 10 9 9 -3 16 -1 16 6 0 6 5 8 10 5 6 -3 10 -11 10 -16 0 -6 -4 -8 -9
-5 -5 3 -12 -2 -15 -11 -4 -9 -2 -20 4 -23 8 -5 6 -9 -4 -13 -17 -7 -22 -42
-7 -51 5 -3 11 4 15 17 5 18 8 19 16 7 6 -9 6 -18 0 -24 -15 -15 -12 -26 5
-20 9 4 17 -1 21 -12 3 -11 10 -29 16 -41 6 -11 7 -26 3 -32 -10 -17 -14 -91
-4 -91 4 0 14 9 23 21 8 12 22 19 32 17 17 -3 17 -5 -3 -25 -13 -13 -25 -34
-29 -48 -4 -15 -16 -28 -30 -31 -29 -7 -46 -27 -49 -57 -4 -35 -5 -37 -12 -37
-14 0 -7 58 9 82 8 13 18 33 22 45 6 18 4 22 -8 17 -11 -4 -16 -1 -16 10 0 19
-16 21 -26 4 -4 -6 -2 -14 4 -16 7 -2 12 -9 12 -16 0 -16 -80 -86 -97 -86 -8
0 -16 -13 -19 -30 -4 -16 -9 -28 -13 -25 -4 2 -13 -1 -21 -6 -11 -8 -3 -9 28
-5 49 7 56 -6 12 -24 -16 -7 -30 -16 -30 -20 0 -15 -31 -20 -52 -9 -14 7 -23
8 -27 1 -5 -9 -39 -17 -51 -12 -23 9 -41 5 -56 -11 -18 -20 -54 -26 -54 -9 0
6 9 10 20 10 11 0 20 4 20 10 0 5 28 23 63 40 34 17 50 28 35 25 -22 -4 -30 0
-45 25 -20 34 -38 40 -28 10 4 -14 2 -20 -9 -20 -8 0 -18 5 -21 10 -8 14 -38
13 -53 -2 -9 -9 -8 -16 5 -30 9 -10 22 -18 30 -18 20 0 16 -14 -16 -44 -28
-27 -29 -27 -36 -7 -3 11 -4 25 -1 30 3 5 -2 15 -11 22 -15 13 -16 11 -9 -15
5 -22 3 -31 -12 -42 -22 -15 -27 -64 -6 -64 8 0 14 4 14 8 0 5 15 9 33 10 42
1 118 11 136 17 8 3 23 -3 34 -12 11 -10 17 -13 13 -6 -4 8 6 14 31 19 25 5
38 3 41 -5 2 -6 11 -11 20 -10 11 0 12 2 5 6 -22 8 -14 18 15 19 113 3 132 10
132 48 0 13 -5 17 -19 13 -14 -3 -21 2 -25 16 -7 29 1 34 19 11 14 -18 16 -18
29 -1 15 20 40 23 33 5 -4 -15 21 -37 42 -38 11 0 11 3 0 16 -10 13 -10 17 2
25 8 5 19 9 26 9 6 0 24 5 38 10 23 9 25 13 14 26 -10 12 -24 15 -56 10 -46
-6 -55 2 -23 21 12 8 21 9 25 3 13 -21 23 -9 23 27 0 22 6 41 16 48 9 7 12 15
8 19 -4 4 1 12 11 18 10 5 22 21 27 34 8 20 16 24 48 24 25 0 49 -8 66 -21 15
-12 33 -18 44 -15 11 4 27 -2 40 -15 17 -15 30 -19 52 -14 16 4 32 11 36 16 3
5 22 16 42 25 35 15 70 14 131 -3 20 -5 23 -3 18 10 -4 10 -1 17 6 17 7 0 21
3 33 6 30 8 25 -36 -5 -48 -43 -15 -8 -34 58 -32 34 1 61 -2 61 -7 0 -5 -9 -9
-20 -9 -18 0 -19 -3 -8 -20 7 -10 9 -22 5 -26 -11 -11 -99 17 -133 43 -21 15
-44 23 -72 23 -36 0 -42 -3 -42 -21 0 -19 -4 -21 -30 -15 -34 6 -34 6 -19 -28
13 -29 56 -40 76 -20 8 8 11 18 8 24 -10 16 12 12 56 -10 33 -17 38 -24 30
-39 -6 -10 -7 -21 -4 -25 9 -8 -15 -7 -59 3 -44 10 -47 6 -15 -20 27 -22 13
-24 -43 -4 -51 18 -86 19 -129 4 -33 -12 -36 -25 -8 -43 12 -8 21 -6 35 7 11
10 35 17 60 17 51 0 124 -30 117 -47 -6 -17 3 -16 21 2 9 8 23 15 32 15 15 -1
15 -2 -2 -15 -17 -13 -18 -15 -2 -21 9 -3 25 -4 36 -1 13 3 18 1 14 -5 -5 -7
2 -9 20 -4 15 4 46 0 72 -9 51 -17 78 -19 69 -5 -3 5 0 7 7 5 7 -3 20 -20 29
-38 17 -34 53 -49 82 -35 19 10 23 -2 6 -19 -7 -7 -7 -17 -1 -29 6 -11 13 -27
16 -38 4 -12 12 -16 22 -12 9 4 22 1 30 -5 9 -7 19 -7 34 1 11 6 30 8 40 5 14
-4 20 -2 20 9 0 9 -5 16 -11 16 -5 0 -8 4 -4 9 10 17 -26 41 -61 41 -19 0 -34
5 -34 10 0 15 30 24 41 13 7 -7 26 -6 55 0 37 9 44 14 41 29 -6 22 12 23 39 3
16 -12 17 -14 2 -15 -25 0 -52 -30 -39 -43 6 -6 11 -28 11 -48 0 -24 5 -39 16
-43 11 -4 13 -13 9 -28 -6 -19 -5 -21 6 -10 19 18 26 15 33 -12 6 -24 31 -41
46 -31 4 3 6 13 3 24 -4 16 3 19 49 24 29 2 54 1 56 -3 2 -4 12 -6 22 -3 14 4
20 0 20 -10 0 -20 16 -30 33 -20 6 4 19 8 27 8 8 0 15 9 15 19 0 11 6 21 13
24 6 2 12 8 12 13 0 6 -4 7 -10 4 -5 -3 -10 1 -10 10 0 11 -6 14 -25 9 -28 -7
-35 10 -9 20 26 10 83 -4 78 -19 -3 -7 -1 -16 4 -19 11 -7 24 33 16 46 -3 5
-17 13 -30 18 -13 5 -24 17 -24 27 -1 16 -2 17 -13 2 -13 -17 -48 -11 -62 10
-3 6 -17 11 -30 11 -18 0 -23 4 -19 15 4 10 0 15 -15 15 -12 0 -21 5 -21 11 0
5 8 9 18 8 9 -1 25 1 35 6 19 8 47 -10 47 -31 0 -8 5 -14 11 -14 5 0 8 -4 4
-9 -3 -5 0 -13 6 -17 9 -5 10 1 5 19 -3 14 -2 29 4 32 5 3 10 1 10 -4 0 -6 12
-11 28 -10 15 0 21 3 15 6 -29 11 -11 24 25 17 20 -4 48 -9 62 -10 39 -2 40
-3 40 -20 0 -20 37 -68 42 -54 2 6 16 6 41 -2 30 -9 40 -9 46 1 6 9 11 8 21
-4 13 -16 60 -21 60 -6 0 13 37 24 51 15 8 -4 6 -10 -7 -17 -17 -10 -17 -11 1
-18 19 -7 19 -8 1 -8 -12 -1 -16 -6 -12 -17 4 -11 0 -15 -17 -14 -41 4 -55 0
-61 -16 -5 -14 -4 -15 9 -4 17 14 31 8 20 -9 -9 -16 -55 -13 -61 3 -5 14 -54
17 -54 4 0 -5 -15 -8 -32 -9 -29 0 -30 -1 -12 -9 38 -15 37 -29 -1 -23 -23 4
-35 2 -35 -6 0 -12 203 -8 255 5 24 6 25 8 10 24 -23 26 -9 29 46 12 36 -12
52 -13 57 -5 5 7 11 7 20 -3 7 -8 9 -14 5 -15 -4 0 3 -4 17 -8 22 -6 208 -1
420 12 41 3 100 1 130 -3 l55 -7 -50 -2 c-27 -1 -135 -4 -240 -7 -104 -2 -237
-9 -294 -14 -58 -6 -142 -10 -188 -10 -75 0 -104 -10 -70 -23 7 -4 6 -6 -5 -6
-9 -1 -18 4 -20 11 -5 15 -86 12 -105 -4 -7 -6 -28 -7 -48 -4 -41 8 -46 -5 -8
-25 36 -19 285 -15 326 6 15 8 35 11 43 8 9 -3 14 1 14 13 0 16 2 16 10 4 11
-18 69 -19 360 -6 113 5 203 6 200 3 -6 -6 -160 -17 -315 -23 -55 -2 -118 -6
-140 -8 -22 -3 -96 -7 -164 -11 -69 -3 -129 -10 -135 -15 -6 -5 -33 -8 -60 -7
-40 2 -51 -2 -68 -23 -20 -24 -20 -24 -14 -2 7 19 4 22 -23 22 -35 0 -51 -18
-29 -34 9 -7 14 -24 13 -44 -2 -29 1 -32 27 -32 17 0 31 -6 35 -16 5 -13 8
-12 25 5 22 24 67 23 92 -2 21 -20 20 -27 -1 -25 -10 1 -27 0 -37 0 -17 -2
-18 -4 -4 -19 8 -10 18 -30 22 -45 3 -16 12 -28 19 -28 18 0 104 29 90 29 -27
2 -11 18 18 19 35 1 54 12 21 12 -11 0 -23 4 -26 9 -4 5 3 7 14 4 14 -4 20 0
20 11 0 9 -7 16 -15 16 -18 0 -20 26 -2 33 7 3 5 6 -5 6 -20 1 -24 16 -8 26 6
3 10 1 10 -4 0 -6 7 -11 15 -11 8 0 14 6 13 13 -3 10 21 14 54 8 6 -1 -2 -36
-17 -73 -6 -14 -2 -18 16 -17 19 1 20 2 6 6 -16 4 -15 7 8 19 37 19 52 18 58
-6 3 -13 14 -20 30 -20 14 0 27 -5 29 -12 3 -8 34 -7 124 6 65 10 127 22 137
27 10 5 22 7 26 4 8 -4 67 1 206 20 21 3 36 3 33 -1 -4 -3 -49 -12 -100 -20
-350 -49 -348 -49 -348 -65 0 -5 6 -9 13 -9 8 0 7 -4 -3 -10 -22 -14 -33 -12
-26 6 5 12 1 15 -22 10 -15 -3 -46 -8 -68 -11 -34 -5 -41 -10 -37 -25 5 -17
35 -31 76 -36 10 -1 23 -6 30 -13 6 -6 21 -11 33 -11 12 0 25 -7 28 -16 4 -12
2 -15 -9 -10 -8 3 -15 1 -15 -4 0 -5 16 -14 34 -21 37 -13 41 -31 4 -21 -14 3
-19 2 -14 -6 7 -11 -18 -17 -52 -13 -18 3 -26 -27 -12 -44 6 -7 19 -11 27 -8
13 5 15 1 9 -20 -7 -29 0 -32 36 -18 13 5 49 15 81 22 42 9 56 16 52 26 -4 11
5 13 48 9 28 -3 69 -2 91 3 21 5 35 6 30 2 -10 -9 -149 -47 -243 -67 -35 -7
-74 -20 -87 -29 -13 -8 -33 -15 -45 -15 -31 0 -99 -22 -99 -31 0 -5 -7 -6 -15
-2 -17 6 -47 -26 -39 -39 3 -5 -2 -8 -10 -8 -9 0 -16 -5 -16 -11 0 -6 9 -9 20
-6 24 6 25 3 4 -17 -18 -18 -55 -22 -52 -5 2 6 -3 14 -11 17 -10 3 -12 0 -8
-11 8 -22 -1 -26 -34 -17 -32 10 -39 -3 -11 -20 16 -11 16 -11 0 -6 -10 3 -20
1 -23 -4 -8 -13 31 -22 65 -15 44 10 57 -4 22 -25 -42 -26 -39 -66 6 -82 21
-8 32 -19 32 -31 0 -17 2 -17 16 -6 13 11 14 9 9 -14 -6 -21 -3 -27 8 -27 21
0 26 -9 32 -66 5 -39 4 -47 -6 -36 -19 18 -29 15 -29 -8 0 -16 -6 -13 -36 18
l-35 37 7 -44 c7 -51 25 -74 49 -65 10 4 22 -1 30 -12 13 -17 14 -17 15 -2 0
12 6 16 18 12 14 -5 14 -3 -3 11 -19 16 -19 16 10 8 37 -9 73 -10 105 0 17 5
14 1 -12 -15 -45 -27 -48 -37 -10 -30 24 5 25 3 14 -11 -10 -11 -20 -14 -35
-8 -45 16 -108 0 -77 -20 13 -8 13 -10 1 -18 -12 -8 -10 -12 12 -22 31 -14 36
-30 7 -22 -37 10 -21 -8 26 -29 34 -15 43 -23 35 -31 -9 -9 -17 -8 -33 2 -16
10 -22 10 -28 1 -4 -7 -13 -10 -19 -6 -7 5 -9 1 -5 -9 5 -11 2 -14 -11 -9 -9
4 -21 17 -26 30 -10 29 -49 33 -49 6 0 -11 12 -22 31 -29 17 -7 28 -16 25 -22
-4 -5 4 -19 16 -31 13 -12 22 -33 23 -51 0 -28 5 -32 55 -49 65 -23 93 -24
121 -7 17 10 22 9 30 -5 6 -10 17 -14 30 -11 11 3 39 -4 62 -15 65 -32 79 -31
97 3 l15 30 3 -39 c4 -44 -2 -66 -18 -66 -6 0 -9 4 -6 9 3 5 -1 12 -10 15 -23
9 -46 7 -40 -3 3 -5 -1 -12 -10 -15 -8 -3 -12 -2 -9 4 3 5 -17 8 -50 6 -31 -2
-58 1 -61 5 -3 5 -17 9 -32 9 -21 0 -24 -2 -12 -10 17 -11 11 -13 -50 -13 -24
0 -27 -1 -10 -4 13 -3 35 -13 48 -24 14 -10 37 -19 53 -19 15 0 31 -4 34 -10
3 -6 -1 -7 -9 -4 -19 7 -21 -7 -4 -24 7 -7 8 -12 2 -12 -6 0 -19 9 -29 20 -11
12 -29 19 -44 18 -32 -2 -101 20 -101 33 0 5 -8 9 -17 9 -15 0 -14 -2 3 -14
18 -14 18 -15 0 -22 -10 -4 -27 -2 -37 5 -11 6 -31 8 -46 5 -22 -6 -25 -4 -20
10 4 10 1 16 -8 16 -8 0 -15 5 -15 11 0 6 -14 24 -32 41 -26 24 -29 31 -17 40
11 8 11 9 -3 4 -10 -3 -20 -2 -22 3 -3 4 -19 8 -36 9 -26 1 -30 -3 -30 -26 0
-26 -1 -26 -22 11 -23 38 -54 49 -64 22 -5 -12 -9 -13 -21 -3 -10 8 -16 9 -21
1 -4 -6 -21 -14 -37 -18 -29 -6 -29 -6 -11 9 11 9 24 16 28 16 9 0 58 49 58
58 0 3 -3 3 -6 0 -7 -8 -50 34 -47 44 2 5 -4 8 -12 8 -18 0 -18 -1 -5 -34 11
-29 8 -31 -22 -15 -16 9 -18 13 -7 20 7 4 11 10 8 14 -3 3 -31 -6 -62 -20 -40
-19 -54 -30 -50 -41 4 -12 0 -14 -20 -9 -14 4 -28 2 -31 -4 -4 -6 -16 -11 -27
-11 -19 0 -19 1 -3 23 10 13 29 24 43 25 13 1 36 10 50 19 14 10 35 22 45 28
20 10 28 37 19 61 -6 16 -43 19 -43 4 0 -5 -7 -7 -15 -4 -18 7 -20 35 -3 52 8
8 15 9 25 1 9 -9 14 -7 19 5 8 22 -1 30 -33 31 -15 0 -28 6 -31 14 -3 10 4 12
32 9 28 -3 36 0 36 12 0 13 2 13 10 0 6 -9 5 -17 -2 -21 -13 -8 35 -89 52 -89
6 0 10 -7 10 -15 0 -18 1 -18 35 -5 21 8 25 14 19 33 -6 20 -4 20 22 -7 28
-27 29 -28 32 -7 4 23 18 28 25 9 3 -7 6 0 6 15 1 29 -31 66 -56 67 -16 0 -17
-16 -3 -25 12 -7 4 -25 -11 -25 -5 0 -9 9 -9 20 0 13 -5 18 -15 14 -9 -4 -15
0 -15 9 0 16 45 32 62 21 5 -4 14 0 19 7 8 11 12 10 24 -5 17 -22 29 -17 19 8
-3 9 -17 19 -31 22 -15 4 -22 12 -19 20 3 7 -1 35 -9 61 -8 27 -12 56 -9 66 5
17 -11 25 -18 8 -1 -5 -20 -12 -41 -15 -21 -3 -50 -12 -65 -19 -15 -8 -46 -19
-69 -27 -45 -14 -53 -24 -28 -34 8 -3 15 -13 15 -22 0 -13 -5 -11 -24 9 -23
24 -56 28 -56 7 0 -4 -10 -11 -22 -15 l-23 -7 25 -8 c23 -7 24 -8 3 -9 -12 -1
-24 3 -27 8 -9 14 -82 -6 -128 -35 -26 -17 -44 -22 -50 -16 -10 10 29 33 82
47 14 4 32 13 40 20 8 7 30 16 48 20 30 6 46 25 20 25 -6 0 -8 3 -5 6 4 4 13
1 21 -5 9 -8 16 -8 20 -2 4 5 2 12 -4 16 -15 9 -12 35 5 35 8 0 12 -6 10 -12
-4 -9 7 -14 30 -15 19 -1 35 2 35 7 0 5 13 11 29 15 20 4 28 11 24 21 -6 17 8
18 26 2 11 -11 13 -9 8 10 -5 22 -4 23 39 16 35 -5 45 -3 50 10 4 11 19 16 43
16 34 1 35 2 17 15 -11 8 -16 15 -12 15 5 0 2 7 -5 16 -20 25 -20 42 2 37 10
-3 19 -1 19 4 0 17 -63 63 -86 63 -18 0 -21 5 -20 38 l1 37 -40 -3 c-83 -7
-92 -60 -15 -83 22 -7 37 -15 35 -20 -3 -4 -1 -10 4 -14 6 -3 8 -12 4 -20 -3
-8 0 -15 6 -15 6 0 8 -7 5 -15 -4 -10 -13 -13 -25 -10 -31 10 -40 -3 -23 -31
12 -18 13 -24 3 -24 -7 0 -21 -8 -31 -17 -13 -11 -22 -14 -26 -6 -4 5 -18 13
-32 17 -14 3 -19 3 -12 0 19 -9 14 -24 -7 -24 -11 0 -21 -6 -24 -12 -3 -9 -12
-6 -28 10 -13 12 -18 22 -12 22 7 0 15 -4 18 -10 3 -5 10 -10 16 -10 14 0 11
26 -6 40 -21 17 -19 58 4 72 10 6 17 17 14 24 -2 6 0 15 6 19 10 5 15 -14 14
-52 0 -7 12 -9 36 -6 47 8 47 8 12 29 -32 19 -41 50 -19 72 9 9 8 12 -5 12 -9
0 -17 5 -17 10 0 6 -7 10 -15 10 -8 0 -15 -7 -15 -15 0 -11 -7 -13 -29 -9 -26
6 -29 4 -24 -15 3 -12 1 -21 -6 -21 -6 0 -11 -7 -11 -16 0 -9 -8 -23 -17 -30
-15 -10 -16 -16 -7 -31 7 -11 10 -31 9 -46 -2 -15 1 -29 6 -33 19 -11 9 -25
-10 -14 -39 20 -45 9 -8 -15 43 -30 46 -41 12 -47 -20 -4 -30 2 -51 31 -15 20
-35 43 -45 51 -10 8 -24 33 -31 55 -10 30 -19 41 -37 43 -22 4 -23 1 -17 -32
9 -50 -10 -47 -30 5 -13 31 -21 39 -35 36 -11 -3 -19 -3 -19 -1 0 6 88 44 101
44 10 0 10 3 2 11 -7 7 -8 21 -2 42 7 24 4 37 -11 61 -11 17 -20 27 -20 22 0
-4 -11 -1 -24 7 -26 18 -38 13 -29 -11 5 -11 2 -14 -10 -9 -12 5 -17 1 -17
-13 0 -11 -4 -20 -10 -20 -5 0 -10 5 -10 12 0 6 -9 2 -20 -10 -17 -18 -19 -26
-10 -42 6 -12 7 -20 1 -20 -5 0 -11 -6 -14 -12 -2 -7 -2 -3 0 10 2 15 -2 22
-12 22 -8 0 -15 -6 -15 -12 0 -10 -3 -9 -9 1 -5 7 -14 10 -20 7 -15 -9 -14 7
1 22 8 8 9 15 2 22 -13 13 -64 -9 -64 -27 0 -7 -6 -13 -14 -13 -21 0 -31 -21
-15 -31 8 -5 10 -9 4 -9 -30 1 -75 70 -45 70 6 0 10 7 10 17 0 14 2 14 20 -2
24 -22 36 -14 20 14 -9 17 -8 21 5 21 17 0 19 9 6 29 -6 9 -11 10 -15 2 -4 -6
-12 -9 -17 -5 -5 3 -7 9 -4 14 3 5 1 11 -4 15 -6 3 -8 12 -4 20 3 8 0 15 -6
15 -7 0 -16 10 -21 23 -8 21 -9 21 -9 -5 -1 -22 -6 -28 -23 -30 -13 -1 -30 -2
-38 -4 -8 -1 -19 -2 -25 -3 -5 -1 -4 -6 3 -13 17 -17 15 -29 -3 -22 -9 4 -15
0 -15 -10 0 -9 -8 -16 -20 -16 -11 0 -20 5 -20 11 0 7 -9 9 -21 6 -13 -3 -22
0 -26 10 -5 12 -7 12 -14 1 -6 -10 -11 -10 -20 -1 -10 10 -10 18 0 37 8 13 10
29 7 35 -4 6 -2 19 3 30 16 29 -13 51 -37 28 -9 -10 -11 -17 -5 -17 6 0 14 -7
17 -16 8 -20 -20 -43 -51 -44 -18 0 -21 -5 -17 -30 6 -37 -9 -39 -25 -4 -8 17
-17 24 -27 20 -9 -3 -19 -6 -23 -6 -5 0 -8 -16 -7 -36 1 -23 -4 -39 -13 -42
-10 -3 -13 3 -9 27 4 31 4 31 -39 31 -24 0 -43 -4 -43 -9 0 -5 -12 -11 -27
-14 -90 -18 -115 -26 -132 -41 -9 -9 -25 -16 -33 -16 -26 0 -48 -11 -42 -21 3
-5 0 -9 -6 -9 -7 0 -8 -6 -1 -18 8 -15 5 -18 -17 -17 -17 0 -26 -5 -24 -13 4
-22 -30 -27 -46 -6 -10 13 -16 15 -19 7 -8 -23 -34 -15 -31 10 2 14 -2 22 -12
22 -9 0 -15 -9 -14 -23 0 -16 -3 -19 -10 -12 -5 5 -15 10 -20 10 -6 0 -5 -5 2
-12 7 -7 12 -20 12 -30 0 -23 19 -23 36 0 13 16 13 16 14 0 0 -12 5 -15 16
-11 14 5 16 2 11 -20 -8 -31 0 -57 18 -57 7 0 15 -6 18 -12 4 -10 7 -10 18 -1
15 14 39 0 39 -23 0 -22 17 -16 24 9 l7 22 9 -23 c9 -22 36 -39 46 -29 7 6
-10 40 -30 60 -12 12 -10 14 15 14 15 0 26 -4 22 -9 -3 -5 4 -18 16 -29 12
-11 21 -26 21 -35 0 -8 7 -17 15 -20 8 -4 15 -11 15 -16 0 -6 -7 -8 -14 -5
-15 6 -81 -21 -72 -30 2 -2 13 0 24 6 13 7 22 7 31 -2 9 -9 14 -8 21 3 8 12
10 10 10 -7 0 -13 -6 -24 -15 -24 -8 -1 -19 -3 -25 -4 -5 -1 -17 -3 -25 -4 -8
0 -15 -8 -15 -16 0 -17 -16 -20 -25 -5 -4 7 -13 7 -26 0 -22 -12 -26 -35 -4
-26 10 4 15 -1 15 -14 0 -24 -19 -26 -46 -5 -10 8 -26 15 -34 15 -21 0 -108
92 -102 108 2 7 -2 19 -9 28 -10 12 -14 12 -20 2 -6 -9 -11 -5 -18 12 -5 14
-10 19 -10 13 -1 -21 -27 -15 -27 6 0 10 5 17 12 14 6 -2 14 6 16 19 3 13 9
31 13 41 5 12 3 17 -9 17 -10 0 -16 -9 -16 -24 0 -13 -7 -26 -15 -29 -18 -7
-75 42 -75 65 0 9 -20 38 -45 65 -45 49 -55 79 -33 101 15 15 -4 31 -37 33
-51 2 -77 9 -101 28 -29 23 -59 27 -69 11 -16 -26 -103 3 -153 50 -26 24 -42
19 -26 -8 6 -9 9 -44 7 -78 -3 -47 -1 -65 11 -77 9 -9 19 -29 22 -44 5 -23 1
-31 -18 -40 -38 -19 -68 -25 -68 -14 0 6 7 11 15 11 8 0 15 5 15 11 0 6 -9 9
-20 6 -15 -4 -24 3 -36 29 -9 19 -20 34 -25 34 -16 0 -42 61 -30 73 8 8 14 8
23 -1 16 -16 28 -15 28 3 0 7 8 18 17 24 25 13 9 25 -15 12 -17 -9 -21 -7 -26
15 -6 23 -11 25 -53 22 l-47 -3 -6 37 c-10 58 -26 71 -79 64 -40 -5 -42 -4
-18 5 33 13 34 19 2 49 -18 17 -23 30 -19 47 4 14 2 23 -5 23 -22 0 -10 18 17
25 18 5 22 9 12 13 -8 2 -27 16 -41 30 -23 23 -24 28 -12 40 31 31 9 37 -134
38 -112 0 -146 3 -165 16 -14 9 -40 18 -59 20 l-34 3 35 19 c18 10 40 25 48
32 7 8 18 14 23 14 12 0 9 50 -4 68 -6 7 -6 12 1 12 6 0 12 -6 15 -12 3 -9 11
-7 26 8 18 17 21 27 15 61 -9 57 -16 64 -65 68 -24 2 -46 4 -48 4 -2 1 7 9 20
20 19 15 21 21 11 34 -8 9 -21 13 -34 9 -15 -3 -19 -1 -16 9 3 8 -1 20 -9 27
-19 19 -16 32 7 32 11 0 20 -4 20 -10 0 -5 4 -10 10 -10 11 0 1 32 -14 43 -6
5 -1 5 12 2 26 -7 30 10 5 19 -10 3 -29 13 -42 20 l-23 14 33 8 34 7 -35 8
c-19 5 -44 5 -55 2 -17 -5 -18 -4 -7 10 8 9 21 13 34 9 15 -4 19 -2 13 8 -5 8
-20 10 -42 7 -31 -5 -33 -4 -27 16 3 12 13 30 22 40 12 14 13 17 1 17 -23 0
-42 -17 -34 -30 7 -11 -10 -29 -26 -30 -10 0 -17 36 -10 48 3 5 16 12 29 16
12 4 22 12 22 17 0 5 -9 4 -19 -3 -17 -10 -23 -9 -40 6 -12 11 -21 28 -21 38
0 10 -8 21 -17 24 -32 10 -46 20 -42 29 2 6 11 10 19 10 8 1 14 6 13 13 -2 7
4 12 13 12 11 0 14 -5 10 -16 -4 -12 0 -15 17 -12 14 2 21 9 21 20 -1 10 1 17
5 16 17 -3 68 25 79 42 10 17 10 20 -3 20 -22 0 -18 16 7 34 18 13 19 16 5 16
-9 0 -17 -5 -17 -11 0 -6 -7 -9 -15 -5 -18 6 -45 -2 -45 -15 0 -5 9 -9 20 -9
11 0 20 -7 20 -15 0 -23 -35 -18 -47 8 -21 41 -23 60 -12 73 14 17 30 9 22
-11 -3 -8 0 -15 5 -15 6 0 14 9 17 21 6 18 12 20 42 14 24 -4 33 -3 28 4 -3 6
-18 11 -31 11 -31 0 -28 20 4 35 12 5 22 16 22 24 0 13 -13 12 -54 -5 -14 -5
-17 -4 -12 4 5 8 -1 12 -18 12 -14 0 -26 -5 -26 -12 0 -9 -3 -9 -12 0 -7 7
-23 12 -36 12 -19 0 -23 4 -19 20 3 11 1 18 -4 14 -5 -3 -9 0 -9 5 0 6 -7 11
-16 11 -8 0 -13 4 -9 9 6 10 44 9 62 -2 6 -4 15 -2 20 5 10 18 13 39 3 33 -4
-3 -19 4 -33 15 -14 11 -31 20 -39 20 -20 1 22 30 43 30 9 0 19 -7 23 -15 3
-8 16 -15 30 -15 14 0 28 -5 32 -12 5 -8 10 -7 18 3 16 20 66 51 66 40 0 -4
-7 -14 -15 -21 -26 -21 -17 -25 60 -25 46 0 74 4 71 10 -5 13 50 11 66 -3 8
-6 19 -7 28 -2 11 7 10 12 -9 27 l-23 19 29 -1 c51 -2 82 -15 75 -33 -5 -16
-5 -16 11 0 19 18 23 48 7 48 -5 0 -10 5 -10 10 0 6 14 10 31 10 16 0 28 4 25
9 -3 5 -16 7 -28 3 -14 -3 -19 -2 -14 6 4 7 23 12 43 12 30 0 34 2 23 15 -7 8
-19 15 -26 15 -8 0 -14 5 -14 10 0 20 42 10 61 -14 15 -19 26 -23 46 -20 27 5
66 -9 91 -34 26 -24 51 -32 81 -26 24 5 31 3 31 -9 0 -21 60 -37 105 -30 23 4
35 2 35 -6 0 -6 -5 -11 -11 -11 -6 0 -9 -6 -6 -12 2 -8 23 -13 55 -13 36 0 48
3 41 11 -11 13 15 39 30 30 5 -4 12 -2 15 3 9 14 -34 25 -47 12 -6 -6 -22 -10
-36 -10 -19 1 -21 3 -8 6 18 5 18 5 0 19 -17 13 -17 13 5 14 12 0 22 -4 22 -9
0 -4 11 -6 25 -3 16 3 33 -2 46 -14 17 -15 22 -16 29 -4 7 11 11 11 24 1 17
-14 48 -8 66 15 10 11 9 18 -5 34 -9 10 -23 16 -30 14 -8 -3 -12 2 -12 13 2
14 -6 19 -36 21 -29 2 -37 7 -33 18 6 16 -19 20 -29 4 -13 -21 -27 -9 -20 17
11 45 27 51 81 28z m4396 -90 c12 -14 27 -25 34 -25 6 0 20 -12 29 -27 10 -15
45 -52 78 -83 78 -71 85 -79 127 -130 19 -23 41 -49 49 -57 7 -7 10 -17 6 -21
-4 -4 -10 -1 -13 7 -7 22 -56 69 -87 85 -58 30 -44 2 36 -75 46 -43 80 -81 77
-84 -7 -8 -48 12 -48 23 0 8 -70 87 -70 80 0 -3 -22 16 -48 41 -27 25 -47 50
-44 54 2 5 12 1 23 -9 10 -9 25 -14 34 -10 15 5 14 9 -3 33 -11 16 -41 46 -67
68 -91 78 -150 135 -140 135 6 0 3 5 -5 10 -10 7 -11 10 -2 10 6 0 22 -11 34
-25z m-2938 -570 c18 -14 38 -25 45 -25 7 0 11 -8 9 -17 -2 -10 7 -29 21 -42
17 -16 21 -26 13 -29 -6 -2 -12 -14 -12 -27 0 -27 -3 -30 -47 -40 -28 -5 -32
-4 -27 9 4 12 0 16 -16 16 -11 0 -18 5 -15 10 3 6 13 10 21 10 20 0 42 22 36
38 -2 6 -18 13 -35 13 -18 1 -24 3 -15 6 15 4 15 6 -3 24 -19 19 -59 26 -59
11 0 -4 5 -13 12 -20 7 -7 9 -12 4 -12 -4 0 -15 8 -24 17 -12 12 -13 18 -4 21
6 2 12 10 12 18 0 8 6 14 14 14 8 0 16 7 20 15 7 20 12 19 50 -10z m-2728
-250 c6 -8 19 -15 28 -15 20 0 82 -44 109 -77 10 -13 28 -23 40 -23 12 0 29
-5 37 -10 13 -8 13 -10 -2 -10 -9 0 -18 -9 -20 -22 -2 -14 -13 -24 -33 -30
-40 -10 -69 -1 -106 34 -17 17 -43 37 -58 45 l-26 15 30 -7 c16 -4 32 -10 35
-15 3 -5 19 -11 35 -15 28 -6 29 -5 12 8 -13 11 -15 17 -7 22 8 5 9 10 1 18
-7 7 -14 7 -23 -1 -8 -6 -19 -7 -27 -3 -10 6 -9 10 5 15 15 6 11 11 -22 33
-21 15 -43 32 -49 39 -5 6 -17 15 -25 18 -8 3 1 4 20 1 19 -3 40 -12 46 -20z
m-146 -32 c8 -2 16 -4 18 -3 8 3 62 -64 62 -76 0 -8 6 -11 15 -8 22 9 47 -15
40 -37 -5 -14 -1 -19 12 -19 11 0 24 5 31 12 9 9 13 7 18 -5 3 -9 12 -17 19
-17 20 0 28 -19 15 -35 -17 -21 6 -29 32 -11 26 18 38 20 38 6 0 -5 -7 -10
-15 -10 -8 0 -15 -7 -15 -15 0 -8 9 -15 20 -15 29 0 35 3 34 18 -1 7 3 11 10
7 6 -3 19 -8 29 -11 25 -9 21 -31 -10 -47 -27 -14 -27 -15 -4 -22 30 -9 52 11
45 41 -5 20 -2 24 17 24 20 0 21 2 9 11 -12 8 -12 12 -2 16 10 4 10 8 1 19
-16 19 -3 31 19 17 12 -8 17 -24 17 -62 0 -39 5 -56 18 -66 18 -13 17 -14 -3
-20 -16 -5 -19 -10 -10 -20 14 -17 -15 -35 -57 -36 -15 0 -37 -4 -48 -8 -19
-8 -19 -8 0 -20 17 -10 13 -11 -25 -6 -58 7 -101 27 -96 42 9 24 -75 51 -126
41 -7 -2 -12 2 -11 9 1 6 -4 17 -12 23 -8 7 -15 18 -15 25 0 7 -7 15 -15 19
-17 6 -20 42 -4 51 15 10 51 -26 46 -45 -3 -11 6 -19 29 -27 19 -5 34 -7 34
-2 0 4 10 10 23 12 l22 4 -22 8 c-22 7 -40 35 -23 35 6 0 10 4 10 9 0 6 -17
11 -37 13 -30 2 -38 8 -43 28 -4 14 -12 24 -19 22 -8 -2 -10 4 -6 18 3 11 2
20 -3 20 -6 0 -13 11 -16 25 -5 18 -15 26 -40 31 -19 3 -39 3 -45 0 -5 -4 -12
-2 -16 4 -3 5 1 10 9 10 9 0 16 5 16 10 0 6 -9 10 -21 10 -11 0 -18 4 -15 9 6
8 28 6 66 -6z m4270 -915 c-30 -11 -74 -29 -97 -39 -42 -19 -64 -39 -42 -39 7
0 9 -3 6 -6 -4 -4 -13 -1 -21 5 -19 16 -30 -3 -16 -29 7 -13 7 -20 1 -20 -6 0
-15 9 -21 20 -14 26 -45 26 -63 0 -12 -17 -21 -20 -56 -14 -48 8 -50 15 -15
43 21 17 24 23 14 40 -12 24 -22 28 -14 6 4 -9 0 -15 -10 -15 -10 0 -13 -6
-10 -15 10 -26 -14 -16 -36 15 l-21 29 26 7 c63 16 103 10 134 -20 26 -25 34
-28 53 -19 13 6 50 19 83 28 33 10 76 23 95 30 19 7 42 13 50 13 8 1 -10 -9
-40 -20z m-2823 -508 c5 0 24 -7 42 -16 25 -13 35 -13 47 -3 29 24 31 -3 2
-43 -20 -27 20 -73 61 -71 24 1 29 -2 22 -11 -7 -9 -7 -16 1 -24 9 -9 9 -12 0
-12 -7 0 -12 -14 -12 -31 0 -24 4 -30 16 -25 12 4 14 1 9 -14 -4 -14 -2 -20 9
-20 8 0 18 -5 22 -11 4 -8 -1 -9 -17 -4 -35 11 -59 35 -56 58 3 27 -19 33 -26
7 -3 -13 -13 -20 -29 -20 -13 0 -29 -5 -34 -10 -11 -11 -44 -3 -44 10 0 4 14
10 30 14 18 3 30 12 30 21 0 19 -2 19 -47 0 -19 -8 -47 -15 -62 -14 -14 0 -20
3 -13 6 6 2 12 11 12 18 0 18 32 29 41 14 5 -9 14 -9 38 1 34 14 43 35 11 27
-14 -4 -20 0 -20 11 0 12 -3 13 -8 5 -5 -8 -18 -7 -46 7 -22 10 -47 16 -55 13
-14 -4 -14 -4 -1 6 8 5 25 7 39 4 21 -5 22 -3 16 18 -10 32 -10 32 -35 19 -28
-15 -35 -8 -20 20 6 12 11 33 10 48 -4 54 -1 57 28 29 15 -15 33 -27 39 -27z"/>
<path d="M5191 4602 c-7 -12 -9 -27 -6 -32 3 -6 -2 -10 -11 -10 -13 0 -15 -3
-7 -11 6 -6 9 -18 6 -25 -3 -9 2 -14 16 -14 12 0 21 5 21 10 0 6 12 10 26 10
24 0 25 -2 13 -17 -12 -15 -12 -16 6 -9 36 15 50 12 51 -11 1 -13 -5 -28 -12
-34 -8 -6 -12 -15 -9 -19 3 -4 -9 -14 -26 -23 -29 -14 -30 -15 -11 -21 13 -4
19 -13 15 -22 -4 -10 3 -14 23 -14 26 1 27 2 12 14 -10 7 -18 18 -18 25 0 14
27 15 32 0 2 -6 16 -1 32 12 25 20 32 21 59 11 33 -12 47 -8 47 14 0 18 14 18
30 -1 7 -8 22 -15 33 -15 19 0 20 1 2 20 -10 11 -24 20 -32 20 -7 0 -13 5 -13
11 0 7 10 9 25 5 18 -5 27 -1 35 13 5 11 10 23 10 26 0 9 -36 2 -107 -18 -45
-13 -54 -13 -72 0 -12 8 -21 25 -21 39 0 25 -24 34 -33 12 -4 -10 -6 -10 -6 0
-1 6 -10 12 -21 12 -11 0 -33 14 -49 32 l-28 32 -12 -22z"/>
<path d="M6553 3928 c-12 -20 -10 -32 7 -45 13 -10 13 -13 -4 -26 -10 -8 -18
-26 -18 -42 0 -16 -9 -38 -19 -49 -23 -24 -25 -40 -3 -32 8 3 26 -1 39 -10 38
-25 59 -12 50 32 -5 31 -4 36 10 30 9 -3 24 2 35 12 18 17 18 18 -14 52 -17
19 -43 40 -56 47 -14 6 -19 12 -12 12 14 1 17 31 3 31 -6 0 -13 -6 -18 -12z"/>
<path d="M5969 3871 c-16 -16 -29 -37 -29 -47 0 -20 40 -60 70 -69 23 -7 27
-40 6 -60 -11 -12 -16 -12 -33 0 -11 8 -23 12 -26 9 -3 -3 -17 2 -32 12 -22
14 -31 15 -46 6 -17 -11 -19 -9 -19 19 0 16 -4 28 -8 25 -13 -8 -79 13 -97 30
-13 14 -15 14 -15 0 0 -9 -4 -16 -10 -16 -5 0 -10 -4 -10 -10 0 -5 10 -10 23
-10 20 -1 21 -2 5 -14 -21 -16 -23 -26 -5 -26 8 0 19 11 25 25 8 16 17 23 27
19 14 -6 14 -8 0 -24 -19 -21 -20 -37 -1 -21 11 9 15 8 20 -4 3 -8 9 -15 13
-14 4 1 11 0 16 -1 4 -1 13 -3 20 -4 6 0 16 -11 22 -24 8 -18 15 -21 37 -17
14 4 29 1 33 -4 3 -6 1 -11 -5 -11 -6 0 -8 -4 -5 -10 3 -5 19 -10 35 -10 16 0
32 -4 35 -10 3 -5 1 -10 -4 -10 -6 0 -11 -9 -11 -20 0 -22 -34 -29 -45 -9 -4
6 -13 8 -20 5 -7 -2 -18 7 -24 20 -6 13 -22 29 -36 36 -14 6 -25 18 -25 25 0
8 -5 11 -10 8 -6 -3 -7 -17 -4 -31 5 -19 2 -24 -13 -24 -14 0 -19 7 -19 23 1
19 -5 22 -38 25 -37 3 -39 2 -25 -14 8 -9 14 -38 15 -63 l1 -45 42 3 c27 1 41
-2 41 -9 0 -8 10 -11 24 -8 18 4 26 0 29 -14 3 -10 14 -18 24 -18 10 0 23 -4
29 -9 5 -6 30 -5 62 1 53 11 79 5 52 -13 -13 -8 -13 -10 -1 -18 8 -5 20 -7 26
-5 7 3 15 -4 17 -14 5 -17 13 -19 59 -16 30 1 44 0 32 -2 -13 -3 -23 -9 -23
-14 0 -13 63 -9 80 5 8 7 53 15 100 19 80 6 83 5 55 -9 -16 -8 -22 -13 -12
-10 32 9 13 -17 -27 -38 -44 -23 -56 -17 -27 14 26 28 22 33 -13 19 -15 -5
-41 -10 -57 -10 -16 0 -29 -5 -29 -11 0 -6 -9 -8 -20 -4 -15 5 -18 3 -14 -10
4 -9 -1 -22 -12 -31 -18 -15 -18 -15 1 -9 11 3 34 9 50 12 17 4 34 11 38 17 5
7 7 3 5 -9 -2 -16 2 -19 22 -16 14 1 28 7 31 12 8 13 58 7 63 -8 3 -8 -5 -15
-20 -19 -17 -4 -22 -10 -16 -16 11 -11 52 -1 52 13 0 5 7 9 15 9 19 0 19 19 0
26 -8 4 -13 10 -10 14 7 11 93 11 100 -1 4 -5 -2 -6 -12 -3 -12 4 -10 -1 7
-15 20 -16 34 -19 68 -14 28 4 42 2 42 -6 0 -6 -9 -11 -21 -11 -23 0 -21 -24
2 -26 8 0 22 -2 32 -2 9 -1 17 -9 17 -17 0 -8 4 -15 9 -15 5 0 4 14 -2 30 -6
17 -15 30 -19 30 -4 0 -8 5 -8 10 0 6 15 10 33 10 31 -1 31 -1 12 -16 -19 -15
-19 -15 10 -12 17 2 29 8 28 16 -2 6 0 12 5 12 12 -1 52 -38 52 -49 0 -6 10
-11 23 -11 16 0 18 3 8 9 -10 6 -5 11 18 16 30 6 31 8 14 20 -26 19 -8 30 19
11 29 -21 62 -21 54 -1 -3 8 -1 15 5 15 6 0 13 -9 16 -20 7 -25 12 -25 29 -2
17 22 17 32 2 32 -7 0 -23 12 -35 27 -21 24 -22 28 -8 43 8 9 13 19 10 22 -3
3 3 8 13 10 15 4 18 1 15 -13 -4 -14 -1 -18 10 -13 43 16 19 104 -29 104 -22
0 -22 -1 -9 -27 17 -33 12 -43 -23 -42 -17 1 -21 3 -9 6 21 5 23 33 2 33 -8 0
-15 5 -15 10 0 6 -4 10 -10 10 -5 0 -7 -7 -4 -15 5 -11 -1 -15 -24 -15 -17 0
-37 -3 -46 -6 -12 -4 -16 0 -16 15 0 16 6 21 25 21 27 0 32 9 13 28 -6 6 -8
15 -4 19 4 4 10 3 14 -3 13 -21 48 -22 61 -3 14 23 29 24 53 2 20 -18 25 -4 6
15 -15 15 -113 16 -141 0 -12 -6 -39 -11 -60 -9 -21 1 -37 -2 -34 -6 3 -5 -47
-9 -111 -11 -63 -1 -146 -9 -183 -18 -38 -8 -81 -14 -96 -12 -16 2 7 9 58 17
47 7 91 16 98 21 22 13 -25 23 -48 11 -25 -14 -54 -14 -46 -1 4 7 -6 10 -27
10 -57 -2 -141 27 -165 57 -23 28 -23 28 -3 37 28 13 25 22 -17 50 -32 20 -40
22 -49 10 -12 -14 -74 -20 -74 -6 0 4 10 13 22 21 22 13 22 14 2 30 -21 19
-35 39 -60 89 -9 17 -18 32 -21 32 -2 0 -18 -13 -34 -29z"/>
<path d="M6735 3753 c-47 -10 -49 -13 -29 -32 11 -10 32 -21 48 -25 15 -4 26
-12 24 -18 -8 -22 -26 -19 -59 12 -18 16 -38 30 -45 30 -23 0 -24 -14 -2 -28
13 -7 16 -11 7 -8 -13 3 -15 0 -12 -15 6 -20 18 -25 28 -10 10 17 65 -8 58
-26 -3 -8 0 -19 8 -24 23 -15 37 -10 32 10 -6 24 5 31 39 24 16 -3 25 -10 22
-18 -4 -9 2 -11 19 -8 37 7 23 48 -29 83 -23 17 -47 30 -53 30 -6 0 -11 7 -11
15 0 15 -8 16 -45 8z"/>
<path d="M7307 3538 c-2 -7 0 -21 5 -30 6 -13 5 -18 -5 -18 -8 0 -20 -7 -27
-15 -7 -8 -8 -15 -3 -15 11 0 33 -58 33 -88 0 -25 27 -42 68 -42 43 0 53 17
40 70 -6 25 -15 49 -19 55 -14 15 -11 22 13 29 33 8 11 24 -37 28 -26 2 -40 8
-40 17 0 19 -22 26 -28 9z"/>
<path d="M6465 3289 c-5 -15 -10 -18 -18 -10 -18 18 -42 13 -52 -11 -7 -16
-19 -23 -44 -24 -34 -2 -71 -28 -57 -41 4 -4 14 1 22 11 12 18 14 18 20 2 9
-23 44 -35 72 -25 13 5 22 5 22 -1 0 -11 -31 -21 -70 -22 -19 -1 -30 -6 -30
-15 0 -10 -6 -12 -19 -8 -14 4 -18 1 -17 -11 0 -9 -5 -19 -11 -21 -7 -3 -13 4
-14 14 0 10 -3 13 -6 6 -8 -22 -21 -14 -16 10 3 16 2 18 -5 8 -8 -11 -10 -11
-14 0 -4 12 -8 12 -20 1 -11 -9 -18 -10 -23 -2 -10 17 -25 11 -25 -10 0 -11
-6 -20 -13 -20 -8 0 -30 -18 -50 -40 -19 -22 -40 -40 -46 -40 -6 0 -11 -11
-11 -25 0 -16 -6 -25 -15 -25 -8 0 -15 7 -15 16 0 8 -4 12 -10 9 -5 -3 -20 1
-32 9 -12 9 -29 16 -38 15 -10 0 -7 -4 8 -11 13 -7 22 -20 22 -34 0 -23 30
-41 49 -30 5 3 11 -2 13 -12 4 -14 14 -17 51 -14 53 5 62 20 17 29 -33 6 -54
26 -24 22 26 -3 70 16 77 34 7 19 47 11 47 -9 0 -8 -6 -11 -17 -7 -13 5 -15 2
-11 -14 4 -13 -1 -27 -13 -37 -29 -24 -23 -36 14 -29 40 7 57 21 39 32 -11 7
-10 10 3 15 23 9 25 8 25 -9 0 -8 5 -15 10 -15 6 0 10 4 10 10 0 5 7 7 15 4 9
-4 28 -2 43 4 15 5 62 20 105 33 42 12 77 28 77 35 0 6 7 15 16 18 21 8 24 8
24 -4 0 -5 -7 -10 -17 -10 -9 0 -14 -3 -10 -6 3 -3 19 -3 36 1 22 5 28 11 24
22 -5 12 -2 15 10 10 8 -3 17 -1 19 5 3 8 10 8 25 0 15 -9 25 -8 38 2 10 7 26
12 34 9 31 -7 43 11 33 48 -6 19 -11 26 -11 16 -1 -28 -26 -14 -29 16 -2 17
-8 25 -14 21 -7 -5 -9 -1 -5 9 3 9 3 16 -1 15 -4 -1 -15 2 -24 6 -28 13 -47 0
-44 -29 2 -14 -1 -28 -5 -31 -5 -3 -9 -14 -9 -25 0 -11 4 -18 9 -14 5 3 12 1
15 -4 3 -5 -5 -11 -19 -13 -25 -5 -62 22 -49 35 4 4 2 13 -4 20 -7 8 -9 17 -5
20 13 14 -44 6 -63 -8 -24 -18 -54 -21 -36 -3 18 18 15 46 -5 51 -14 4 -13 5
3 6 12 0 25 -6 28 -15 10 -27 49 13 41 43 -4 18 -1 23 14 23 24 0 36 -16 19
-23 -8 -4 -4 -8 10 -12 12 -4 22 -11 22 -16 0 -5 4 -9 10 -9 17 0 7 50 -11 55
-9 3 -19 15 -22 25 -7 29 -63 28 -72 -1z"/>
<path d="M7715 3083 c-36 -9 -39 -21 -11 -57 31 -41 73 -69 63 -42 -8 21 11
21 34 0 16 -14 22 -14 48 -3 17 8 31 21 31 31 0 27 -11 48 -25 48 -8 0 -21 7
-30 17 -14 14 -18 14 -26 2 -7 -11 -12 -12 -29 -1 -21 13 -22 13 -55 5z"/>
<path d="M7911 2696 c-9 -11 -9 -15 1 -19 10 -4 10 -6 1 -6 -7 -1 -13 -6 -13
-12 0 -6 9 -8 20 -4 30 9 24 -12 -7 -27 -15 -7 -26 -16 -25 -20 1 -5 2 -17 2
-28 0 -11 7 -20 14 -20 8 0 27 -11 42 -25 21 -19 24 -28 15 -38 -8 -11 -5 -19
14 -37 21 -19 27 -21 40 -10 12 10 19 10 28 1 9 -9 9 -14 -2 -20 -7 -5 -10
-14 -7 -20 10 -16 26 -14 26 4 0 8 11 17 25 21 14 3 25 8 25 10 0 13 -79 74
-96 74 -11 0 -30 13 -42 29 -15 21 -27 28 -42 24 -15 -4 -20 -1 -20 14 0 11 3
22 6 26 6 5 42 -11 54 -24 3 -3 14 -5 26 -5 18 0 20 7 22 53 1 50 0 53 -23 53
-13 0 -27 5 -30 10 -9 15 -41 12 -54 -4z"/>
<path d="M6340 5334 c0 -9 -13 -21 -30 -27 -16 -6 -30 -16 -30 -22 0 -5 -5 -3
-10 5 -9 13 -11 13 -20 0 -6 -10 -10 -11 -10 -2 0 6 -7 12 -16 12 -8 0 -13 -4
-10 -9 8 -12 -27 -20 -69 -14 -22 3 -35 1 -35 -7 0 -6 4 -9 10 -5 5 3 27 -5
48 -19 48 -30 84 -36 89 -16 3 10 2 11 -4 4 -6 -9 -11 -8 -20 1 -10 11 0 15
53 21 47 5 68 3 74 -5 11 -19 76 29 72 52 -2 11 -9 16 -18 13 -8 -3 -22 3 -31
14 -21 24 -43 26 -43 4z"/>
<path d="M6780 4955 c-14 -8 -33 -14 -42 -15 -10 0 -18 -5 -18 -11 0 -6 -11
-8 -27 -5 -16 2 -47 2 -70 -2 -36 -6 -40 -9 -30 -23 7 -8 32 -25 57 -37 48
-23 100 -66 100 -83 0 -5 -10 -13 -22 -18 -32 -12 -4 -24 38 -17 20 4 34 13
34 21 0 8 4 15 8 15 5 0 8 20 8 44 -1 24 -4 42 -8 39 -5 -2 -8 1 -8 8 0 7 -8
9 -21 6 -12 -3 -30 0 -40 6 -22 14 -26 29 -5 21 7 -3 16 1 19 10 4 11 20 14
66 11 36 -2 61 1 61 7 0 6 -14 8 -37 3 -31 -5 -36 -4 -25 6 28 30 5 38 -38 14z"/>
<path d="M7116 4897 c-28 -20 -15 -41 35 -57 24 -7 48 -17 54 -22 5 -4 17 -8
27 -8 10 0 21 -7 24 -15 4 -8 10 -15 15 -15 6 0 23 -10 39 -21 20 -15 36 -20
55 -15 14 4 23 11 20 15 -9 16 7 41 27 41 13 0 18 5 15 14 -6 16 12 26 45 26
12 0 18 3 15 7 -4 3 -20 6 -37 5 -16 0 -30 4 -30 10 0 5 -7 7 -16 4 -8 -3 -25
3 -36 14 -18 16 -34 20 -87 18 -36 -1 -84 1 -106 5 -29 6 -45 5 -59 -6z"/>
<path d="M12080 4361 c0 -5 -13 -13 -28 -19 -26 -9 -76 -49 -200 -159 -46 -41
-47 -42 -27 -57 19 -16 42 -16 77 -1 13 5 15 2 11 -14 -6 -24 4 -26 44 -9 33
15 199 117 261 161 73 52 50 62 -50 22 l-62 -25 32 33 c42 44 42 59 0 45 -18
-6 -38 -15 -45 -20 -21 -17 -24 11 -3 32 15 15 17 20 5 20 -8 0 -15 -4 -15 -9z"/>
<path d="M10803 4063 c-46 -2 -83 -7 -83 -12 0 -4 11 -14 25 -21 14 -7 25 -17
25 -21 0 -4 13 -7 30 -7 17 1 43 -10 64 -26 40 -30 89 -30 125 0 45 39 12 81
-39 50 -32 -18 -39 -19 -59 -7 -12 8 -11 13 10 30 22 19 22 20 4 19 -11 -1
-57 -4 -102 -5z"/>
<path d="M11805 3800 c-4 -6 -17 -10 -28 -9 -12 1 -39 -5 -61 -14 -21 -9 -42
-17 -47 -17 -5 0 -27 -7 -49 -16 -30 -12 -40 -22 -40 -39 0 -31 60 -40 132
-20 67 19 133 36 181 47 20 5 37 12 37 16 0 10 -65 50 -93 57 -14 4 -28 2 -32
-5z"/>
</g>
</svg>
